<svg width="80" height="80" viewBox="0 0 80 80" fill="none" xmlns="http://www.w3.org/2000/svg">
<path d="M29.9999 59.1667C29.6332 59.1667 29.2332 59.0667 28.8999 58.9C26.3332 57.6 24.1332 55.6667 22.5332 53.2667C21.1999 51.2667 21.1999 48.7 22.5332 46.7C24.1332 44.3 26.3332 42.3667 28.8999 41.1C30.1332 40.4667 31.6332 41 32.2665 42.2333C32.8999 43.4667 32.3999 44.9667 31.1332 45.6C29.3332 46.5 27.7999 47.8667 26.6999 49.5333C26.4999 49.8333 26.4999 50.2333 26.6999 50.5667C27.7999 52.2333 29.3332 53.6 31.1332 54.5C32.3665 55.1334 32.8665 56.6334 32.2665 57.8667C31.7999 58.6667 30.8999 59.1667 29.9999 59.1667Z" fill="url(#paint0_linear_261_2155)"/>
<path d="M50.7002 59.1667C49.7669 59.1667 48.9002 58.6667 48.4669 57.8C47.8336 56.5667 48.3336 55.0667 49.6002 54.4334C51.4002 53.5334 52.9336 52.1667 54.0336 50.5C54.2336 50.2 54.2336 49.8 54.0336 49.4667C52.9336 47.8 51.4002 46.4334 49.6002 45.5334C48.3669 44.9 47.8669 43.4 48.4669 42.1667C49.1002 40.9334 50.6002 40.4334 51.8336 41.0334C54.4002 42.3334 56.6002 44.2667 58.2002 46.6667C59.5336 48.6667 59.5336 51.2334 58.2002 53.2334C56.6002 55.6334 54.4002 57.5667 51.8336 58.8334C51.4336 59.0667 51.0669 59.1667 50.7002 59.1667Z" fill="url(#paint1_linear_261_2155)"/>
<path d="M49.9998 75.8334H29.9998C11.8998 75.8334 4.1665 68.1 4.1665 50V30C4.1665 11.9 11.8998 4.16669 29.9998 4.16669H49.9998C68.0998 4.16669 75.8332 11.9 75.8332 30V50C75.8332 68.1 68.0998 75.8334 49.9998 75.8334ZM29.9998 9.16669C14.6332 9.16669 9.1665 14.6334 9.1665 30V50C9.1665 65.3667 14.6332 70.8334 29.9998 70.8334H49.9998C65.3665 70.8334 70.8332 65.3667 70.8332 50V30C70.8332 14.6334 65.3665 9.16669 49.9998 9.16669H29.9998Z" fill="url(#paint2_linear_261_2155)"/>
<path d="M7.43311 29.2C6.06644 29.2 4.93311 28.0667 4.93311 26.7C4.93311 25.3334 6.03311 24.2 7.43311 24.2L71.4998 24.1667C72.8664 24.1667 73.9998 25.3 73.9998 26.6667C73.9998 28.0334 72.8998 29.1667 71.4998 29.1667L7.43311 29.2Z" fill="url(#paint3_linear_261_2155)"/>
<defs>
<linearGradient id="paint0_linear_261_2155" x1="24.4338" y1="44.0787" x2="36.0538" y2="48.4148" gradientUnits="userSpaceOnUse">
<stop stop-color="#0049FC"/>
<stop offset="1" stop-color="#00CBFE"/>
</linearGradient>
<linearGradient id="paint1_linear_261_2155" x1="51.0934" y1="44.0359" x2="62.7215" y2="48.3626" gradientUnits="userSpaceOnUse">
<stop stop-color="#0049FC"/>
<stop offset="1" stop-color="#00CBFE"/>
</linearGradient>
<linearGradient id="paint2_linear_261_2155" x1="23.0514" y1="16.8577" x2="85.2232" y2="55.5003" gradientUnits="userSpaceOnUse">
<stop stop-color="#0049FC"/>
<stop offset="1" stop-color="#00CBFE"/>
</linearGradient>
<linearGradient id="paint3_linear_261_2155" x1="23.1329" y1="25.058" x2="24.2593" y2="34.6651" gradientUnits="userSpaceOnUse">
<stop stop-color="#0049FC"/>
<stop offset="1" stop-color="#00CBFE"/>
</linearGradient>
</defs>
</svg>
