<svg width="56" height="56" viewBox="0 0 56 56" fill="none" xmlns="http://www.w3.org/2000/svg">
<path d="M24.3365 42.8633C23.9865 42.8633 23.6598 42.77 23.3565 42.56C22.8665 42.2333 22.5865 41.6966 22.5865 41.1133C22.5865 40.7633 22.5631 40.39 22.5165 40.0166C22.3065 38.36 21.5598 36.9133 20.2998 35.6533C19.0398 34.3933 17.4765 33.6 15.7965 33.39C15.5165 33.3666 15.1198 33.3433 14.7465 33.3666C14.1398 33.4133 13.5798 33.1566 13.2298 32.6666C12.8798 32.2 12.7865 31.57 12.9731 31.01C13.3231 30.0533 13.8365 29.19 14.4431 28.49L18.0365 23.9633C24.2198 16.24 36.7498 6.95331 45.9198 3.26665C47.8798 2.51998 49.9331 2.96331 51.3565 4.36331C52.8265 5.83331 53.2698 7.93331 52.4998 9.84665C48.8131 19.04 39.5498 31.5466 31.8265 37.73L27.2298 41.4166C26.3665 42.0466 25.6665 42.4433 24.9665 42.7233C24.7798 42.8166 24.5465 42.8633 24.3365 42.8633ZM17.5931 30.1933C19.5531 30.7066 21.3031 31.7333 22.7731 33.2033C24.2431 34.65 25.2231 36.33 25.7131 38.1966L29.6565 35.0233C36.9831 29.1666 45.7798 17.29 49.2565 8.56331C49.6065 7.69998 49.1165 7.09331 48.8831 6.88331C48.7198 6.71998 48.1131 6.20665 47.1798 6.55665C38.4998 10.0566 26.6231 18.8533 20.7431 26.18L17.5931 30.1933Z" fill="url(#paint0_linear_261_3172)"/>
<path d="M9.52001 53.0834C7.77001 53.0834 6.09001 52.3834 4.83001 51.1234C3.38335 49.6767 2.68335 47.67 2.91668 45.6167L3.54668 39.8767C4.15335 34.1834 8.82001 29.96 14.6067 29.8434C15.05 29.82 15.6333 29.8434 16.17 29.89C18.7133 30.2167 20.9767 31.36 22.7967 33.18C24.5933 34.9767 25.6667 37.1234 25.9933 39.5267C26.0633 40.04 26.11 40.6 26.11 41.09C26.11 44.17 24.92 47.0401 22.7733 49.21C20.9767 50.9834 18.6667 52.08 16.0533 52.4067L10.29 53.0367C10.0333 53.06 9.77668 53.0834 9.52001 53.0834ZM15.05 33.3667C14.9567 33.3667 14.84 33.3667 14.7467 33.3667C11.2233 33.4367 7.49001 35.84 7.02335 40.2734L6.39335 46.0134C6.27668 46.9934 6.62668 47.9501 7.30335 48.65C7.98001 49.3267 8.93668 49.6767 9.89335 49.56L15.6333 48.93C17.43 48.6967 19.04 47.9501 20.2533 46.7367C21.7467 45.2434 22.5867 43.2367 22.5867 41.09C22.5867 40.74 22.5633 40.3667 22.5167 39.9934C22.3067 38.3367 21.56 36.89 20.3 35.63C19.04 34.37 17.4767 33.5767 15.7967 33.3667C15.61 33.3667 15.33 33.3667 15.05 33.3667Z" fill="url(#paint1_linear_261_3172)"/>
<path d="M33.2266 35.5134C32.2699 35.5134 31.4766 34.72 31.4766 33.7634C31.4766 28.63 27.2999 24.4767 22.1899 24.4767C21.2333 24.4767 20.4399 23.6834 20.4399 22.7267C20.4399 21.77 21.2099 20.9767 22.1666 20.9767C29.2133 20.9767 34.9533 26.7167 34.9533 33.7634C34.9766 34.7434 34.1833 35.5134 33.2266 35.5134Z" fill="url(#paint2_linear_261_3172)"/>
<path d="M36.5868 53.0367C34.4168 53.0367 32.2468 52.01 30.1701 49.9333C29.4934 49.2567 29.4934 48.1367 30.1701 47.46C30.8468 46.7833 31.9668 46.7833 32.6434 47.46C35.3968 50.2133 37.7534 50.2133 40.5068 47.46L47.4134 40.5533C50.1901 37.7767 50.1901 35.42 47.4134 32.6667L45.6868 30.9633C45.0101 30.2867 44.9868 29.1667 45.6634 28.49C46.3401 27.79 47.4601 27.79 48.1368 28.4667L49.8634 30.17C54.0168 34.3233 54.0168 38.8733 49.8634 43.0267L42.9568 49.9333C40.9268 51.9867 38.7568 53.0367 36.5868 53.0367Z" fill="url(#paint3_linear_261_3172)"/>
<path d="M7.25661 26.2733C6.81327 26.2733 6.34661 26.1099 6.01994 25.7599C1.91327 21.6299 1.91327 17.0566 6.01994 12.9266L12.9266 6.01994C17.0333 1.91327 21.6533 1.91327 25.7599 6.01994L27.4866 7.74661C28.1633 8.42327 28.1633 9.54327 27.4866 10.2199C26.8099 10.8966 25.6899 10.8966 25.0133 10.2199L23.2633 8.49327C20.5099 5.73994 18.1299 5.73994 15.3999 8.49327L8.49327 15.3999C5.73994 18.1766 5.73994 20.5333 8.49327 23.3099C9.16994 23.9866 9.16994 25.1066 8.49327 25.7833C8.14327 26.1099 7.69994 26.2733 7.25661 26.2733Z" fill="url(#paint4_linear_261_3172)"/>
<path d="M17.6167 19.3666C17.1734 19.3666 16.7301 19.2033 16.3801 18.8533C15.7034 18.1766 15.7034 17.0566 16.3801 16.38L25.0134 7.74664C25.6901 7.06997 26.8101 7.06997 27.4867 7.74664C28.1634 8.4233 28.1634 9.5433 27.4867 10.22L18.8534 18.8533C18.5034 19.2033 18.0601 19.3666 17.6167 19.3666Z" fill="url(#paint5_linear_261_3172)"/>
<path d="M40.0401 38.3366C39.5967 38.3366 39.1534 38.1733 38.8034 37.8233C38.1267 37.1466 38.1267 36.0266 38.8034 35.35L45.7101 28.4433C46.3867 27.7666 47.5067 27.7666 48.1834 28.4433C48.8601 29.12 48.8601 30.24 48.1834 30.9166L41.2767 37.8233C40.9501 38.1733 40.5067 38.3366 40.0401 38.3366Z" fill="url(#paint6_linear_261_3172)"/>
<defs>
<linearGradient id="paint0_linear_261_3172" x1="23.4176" y1="9.98319" x2="58.0942" y2="31.5568" gradientUnits="userSpaceOnUse">
<stop stop-color="#0049FC"/>
<stop offset="1" stop-color="#00CBFE"/>
</linearGradient>
<linearGradient id="paint1_linear_261_3172" x1="8.99586" y1="33.9513" x2="29.1603" y2="46.4781" gradientUnits="userSpaceOnUse">
<stop stop-color="#0049FC"/>
<stop offset="1" stop-color="#00CBFE"/>
</linearGradient>
<linearGradient id="paint2_linear_261_3172" x1="24.2645" y1="23.5509" x2="36.8664" y2="31.3713" gradientUnits="userSpaceOnUse">
<stop stop-color="#0049FC"/>
<stop offset="1" stop-color="#00CBFE"/>
</linearGradient>
<linearGradient id="paint3_linear_261_3172" x1="35.8066" y1="32.4023" x2="56.8262" y2="44.5507" gradientUnits="userSpaceOnUse">
<stop stop-color="#0049FC"/>
<stop offset="1" stop-color="#00CBFE"/>
</linearGradient>
<linearGradient id="paint4_linear_261_3172" x1="9.54197" y1="7.07189" x2="30.3883" y2="20.9845" gradientUnits="userSpaceOnUse">
<stop stop-color="#0049FC"/>
<stop offset="1" stop-color="#00CBFE"/>
</linearGradient>
<linearGradient id="paint5_linear_261_3172" x1="19.0667" y1="9.38671" x2="29.5853" y2="15.9213" gradientUnits="userSpaceOnUse">
<stop stop-color="#0049FC"/>
<stop offset="1" stop-color="#00CBFE"/>
</linearGradient>
<linearGradient id="paint6_linear_261_3172" x1="41.0351" y1="29.7776" x2="50.0557" y2="35.3812" gradientUnits="userSpaceOnUse">
<stop stop-color="#0049FC"/>
<stop offset="1" stop-color="#00CBFE"/>
</linearGradient>
</defs>
</svg>
