<svg width="34" height="34" viewBox="0 0 34 34" fill="none" xmlns="http://www.w3.org/2000/svg">
<path d="M23.6667 33.9166H10.3333C4.25 33.9166 0.75 30.4166 0.75 24.3333V10.1666C0.75 4.08325 4.25 0.583252 10.3333 0.583252H23.6667C29.75 0.583252 33.25 4.08325 33.25 10.1666V24.3333C33.25 30.4166 29.75 33.9166 23.6667 33.9166ZM10.3333 3.08325C5.56667 3.08325 3.25 5.39992 3.25 10.1666V24.3333C3.25 29.0999 5.56667 31.4166 10.3333 31.4166H23.6667C28.4333 31.4166 30.75 29.0999 30.75 24.3333V10.1666C30.75 5.39992 28.4333 3.08325 23.6667 3.08325H10.3333Z" fill="#1E1983"/>
</svg>
