<svg width="40" height="32" viewBox="0 0 40 32" fill="none" xmlns="http://www.w3.org/2000/svg">
<path opacity="0.8" d="M37.9221 21.9512C37.371 21.9512 36.8425 21.7336 36.4528 21.3461C36.0631 20.9587 35.8442 20.4332 35.8442 19.8852C35.8442 15.7072 34.1749 11.7003 31.2035 8.74601C28.2322 5.7917 24.2021 4.13199 20 4.13199C15.7979 4.13199 11.7678 5.7917 8.79649 8.74601C5.82513 11.7003 4.15584 15.7072 4.15584 19.8852C4.15584 20.4332 3.93692 20.9587 3.54724 21.3461C3.15755 21.7336 2.62902 21.9512 2.07792 21.9512C1.52682 21.9512 0.998296 21.7336 0.60861 21.3461C0.218924 20.9587 0 20.4332 0 19.8852C0 14.6113 2.10714 9.55345 5.85787 5.82425C9.60859 2.09504 14.6957 0 20 0C25.3043 0 30.3914 2.09504 34.1421 5.82425C37.8929 9.55345 40 14.6113 40 19.8852C40 20.4332 39.7811 20.9587 39.3914 21.3461C39.0017 21.7336 38.4732 21.9512 37.9221 21.9512Z" fill="#003FFF"/>
<path opacity="0.92" d="M34.6342 31.2195H5.85369C5.33619 31.2195 4.83989 31.0139 4.47396 30.648C4.10804 30.2821 3.90247 29.7858 3.90247 29.2683C3.90247 28.7508 4.10804 28.2545 4.47396 27.8886C4.83989 27.5227 5.33619 27.3171 5.85369 27.3171H34.6342C35.1517 27.3171 35.648 27.5227 36.0139 27.8886C36.3798 28.2545 36.5854 28.7508 36.5854 29.2683C36.5854 29.7858 36.3798 30.2821 36.0139 30.648C35.648 31.0139 35.1517 31.2195 34.6342 31.2195Z" fill="#003FFF"/>
<path d="M19.5122 31.2195C17.2932 31.2195 15.124 30.5615 13.279 29.3287C11.4339 28.0959 9.99588 26.3436 9.1467 24.2935C8.29752 22.2434 8.07534 19.9876 8.50825 17.8112C8.94116 15.6348 10.0097 13.6357 11.5788 12.0666C13.1479 10.4975 15.147 9.42898 17.3234 8.99607C19.4997 8.56316 21.7556 8.78535 23.8057 9.63453C25.8558 10.4837 27.608 11.9217 28.8409 13.7668C30.0737 15.6118 30.7317 17.781 30.7317 20C30.7317 20.541 30.5168 21.0599 30.1342 21.4424C29.7517 21.825 29.2328 22.0399 28.6918 22.0399C28.1508 22.0399 27.6319 21.825 27.2493 21.4424C26.8668 21.0599 26.6519 20.541 26.6519 20C26.6519 18.5879 26.2331 17.2075 25.4486 16.0334C24.6641 14.8593 23.549 13.9442 22.2444 13.4038C20.9398 12.8634 19.5043 12.722 18.1193 12.9975C16.7343 13.273 15.4622 13.953 14.4637 14.9515C13.4652 15.95 12.7852 17.2222 12.5097 18.6071C12.2342 19.9921 12.3756 21.4276 12.916 22.7322C13.4564 24.0368 14.3715 25.1519 15.5456 25.9364C16.7197 26.721 18.1001 27.1397 19.5122 27.1397C20.0532 27.1397 20.5721 27.3546 20.9546 27.7372C21.3372 28.1197 21.5521 28.6386 21.5521 29.1796C21.5521 29.7206 21.3372 30.2395 20.9546 30.622C20.5721 31.0046 20.0532 31.2195 19.5122 31.2195Z" fill="#003FFF"/>
</svg>
