<svg width="160" height="48" viewBox="0 0 160 48" fill="none" xmlns="http://www.w3.org/2000/svg">
<path opacity="0.8" d="M41.9221 29.9512C41.371 29.9512 40.8424 29.7336 40.4528 29.3461C40.0631 28.9587 39.8442 28.4332 39.8442 27.8852C39.8442 23.7072 38.1749 19.7003 35.2035 16.746C32.2322 13.7917 28.2021 12.132 24 12.132C19.7979 12.132 15.7678 13.7917 12.7965 16.746C9.82513 19.7003 8.15584 23.7072 8.15584 27.8852C8.15584 28.4332 7.93692 28.9587 7.54724 29.3461C7.15755 29.7336 6.62902 29.9512 6.07792 29.9512C5.52682 29.9512 4.9983 29.7336 4.60861 29.3461C4.21892 28.9587 4 28.4332 4 27.8852C4 22.6113 6.10714 17.5534 9.85786 13.8242C13.6086 10.095 18.6957 8 24 8C29.3043 8 34.3914 10.095 38.1421 13.8242C41.8929 17.5534 44 22.6113 44 27.8852C44 28.4332 43.7811 28.9587 43.3914 29.3461C43.0017 29.7336 42.4732 29.9512 41.9221 29.9512Z" fill="white"/>
<path opacity="0.92" d="M38.6341 39.2196H9.85356C9.33607 39.2196 8.83977 39.014 8.47384 38.6481C8.10792 38.2822 7.90234 37.7859 7.90234 37.2684C7.90234 36.7509 8.10792 36.2546 8.47384 35.8886C8.83977 35.5227 9.33607 35.3171 9.85356 35.3171H38.6341C39.1515 35.3171 39.6478 35.5227 40.0138 35.8886C40.3797 36.2546 40.5853 36.7509 40.5853 37.2684C40.5853 37.7859 40.3797 38.2822 40.0138 38.6481C39.6478 39.014 39.1515 39.2196 38.6341 39.2196Z" fill="white"/>
<path d="M23.512 39.2195C21.293 39.2195 19.1238 38.5615 17.2788 37.3287C15.4337 36.0959 13.9957 34.3437 13.1465 32.2936C12.2973 30.2435 12.0752 27.9876 12.5081 25.8112C12.941 23.6348 14.0095 21.6357 15.5786 20.0666C17.1477 18.4976 19.1468 17.429 21.3232 16.9961C23.4995 16.5632 25.7554 16.7854 27.8055 17.6346C29.8556 18.4837 31.6079 19.9218 32.8407 21.7668C34.0735 23.6118 34.7315 25.781 34.7315 28C34.7315 28.541 34.5166 29.0599 34.134 29.4425C33.7515 29.825 33.2326 30.0399 32.6916 30.0399C32.1506 30.0399 31.6317 29.825 31.2492 29.4425C30.8666 29.0599 30.6517 28.541 30.6517 28C30.6517 26.5879 30.2329 25.2075 29.4484 24.0334C28.6639 22.8593 27.5488 21.9442 26.2442 21.4038C24.9396 20.8634 23.5041 20.722 22.1191 20.9975C20.7341 21.273 19.462 21.953 18.4635 22.9515C17.465 23.95 16.785 25.2222 16.5095 26.6071C16.234 27.9921 16.3754 29.4277 16.9158 30.7323C17.4562 32.0369 18.3713 33.1519 19.5454 33.9365C20.7195 34.721 22.0999 35.1397 23.512 35.1397C24.053 35.1397 24.5719 35.3546 24.9544 35.7372C25.337 36.1198 25.5519 36.6386 25.5519 37.1796C25.5519 37.7206 25.337 38.2395 24.9544 38.6221C24.5719 39.0046 24.053 39.2195 23.512 39.2195Z" fill="white"/>
<path d="M56 30.4838V17.5H65.2135V20.2463H58.7559L58.7233 22.9925H64.3656L64.3492 25.7225H58.7233V30.4838H56Z" fill="white"/>
<path d="M75.0304 30.435C75.112 30.305 75.2098 30.0937 75.3566 29.8175L75.6827 29.1837L78.0146 24.5037C78.8137 22.8787 80.0041 20.62 81.5533 17.5L82.4991 19.385L85.1571 24.65L88.0598 30.435H85.0756C84.8256 29.9692 84.6462 29.6117 84.5375 29.3625H78.7648L78.4875 29.8825C78.3734 30.1262 78.2755 30.305 78.2103 30.435H75.0304ZM80.0856 26.535H83.0861C82.8578 26.0475 82.548 25.43 82.1566 24.6825L81.9283 24.2112C81.7979 23.9675 81.7163 23.7888 81.6511 23.6588C81.6511 23.6588 81.6511 23.7725 81.5533 23.87C81.5566 23.9241 81.5566 23.9784 81.5533 24.0325L81.0314 25.0562C80.8031 25.5112 80.6401 25.8688 80.5096 26.0963C80.4374 26.2527 80.3557 26.4046 80.265 26.5513L80.0856 26.535Z" fill="white"/>
<path d="M97.7625 30.5V17.5H100.486V27.7538H107.384V30.5H97.7625Z" fill="white"/>
<path d="M117.07 30.435L117.396 29.8013L117.706 29.1675L120.054 24.4875C120.853 22.8625 122.028 20.6038 123.593 17.5L124.539 19.385L127.181 24.6338L130.116 30.435H127.05L126.512 29.3463H120.739C120.724 29.3377 120.708 29.3332 120.69 29.3332C120.673 29.3332 120.656 29.3377 120.641 29.3463L120.381 29.8663C120.278 30.0453 120.186 30.2297 120.103 30.4188L117.07 30.435ZM125.061 26.5188C124.816 26.0313 124.523 25.4138 124.131 24.6663C124.131 24.6663 124.017 24.4388 123.887 24.195C123.756 23.9513 123.593 23.7888 123.593 23.5775L123.479 23.7888C123.479 23.8863 123.479 23.935 123.479 23.9513C123.479 23.9675 123.185 24.52 122.957 24.975L122.435 26.015C122.363 26.1714 122.281 26.3234 122.191 26.47C122.164 26.4615 122.136 26.4616 122.109 26.4704C122.083 26.4791 122.06 26.4961 122.044 26.5188H125.061Z" fill="white"/>
<path d="M137.079 23.9839C137.079 23.1177 137.256 22.2605 137.601 21.4652C137.925 20.6949 138.396 19.9942 138.987 19.4014C139.579 18.8088 140.283 18.3392 141.058 18.0202C141.86 17.6707 142.727 17.4935 143.602 17.5002C144.47 17.4944 145.33 17.6659 146.129 18.0039C146.902 18.3274 147.606 18.7964 148.2 19.3852C149.282 20.4621 149.95 21.8836 150.087 23.4014C150.225 24.9192 149.822 26.4368 148.951 27.6889L149.75 28.4039L150.516 29.1027L152 30.4677H147.923L146.945 29.5577C145.973 30.1794 144.838 30.5016 143.683 30.4839C142.819 30.4842 141.964 30.3072 141.172 29.9639C139.603 29.3126 138.351 28.0765 137.682 26.5189C137.312 25.7232 137.106 24.8608 137.079 23.9839ZM139.819 23.9839C139.819 24.9838 140.217 25.9427 140.927 26.6497C141.636 27.3567 142.598 27.7539 143.602 27.7539C143.995 27.7447 144.385 27.6791 144.76 27.5589L143.634 26.5352C143.129 26.0802 142.754 25.7389 142.509 25.4952L142.085 25.1052H146.146L146.912 25.8039C147.221 25.2474 147.379 24.6199 147.369 23.9839C147.38 23.4898 147.287 22.9988 147.096 22.5427C146.905 22.0865 146.62 21.6752 146.26 21.3352C145.916 20.9796 145.503 20.698 145.046 20.5079C144.589 20.3179 144.097 20.2233 143.602 20.2302C143.104 20.2249 142.611 20.3201 142.151 20.51C141.692 20.6999 141.275 20.9806 140.927 21.3352C140.585 21.6845 140.318 22.0993 140.141 22.5546C139.965 23.0099 139.883 23.4961 139.9 23.9839H139.819Z" fill="white"/>
</svg>
