<svg width="166" height="72" viewBox="0 0 166 72" fill="none" xmlns="http://www.w3.org/2000/svg">
<path d="M43.6872 47.8435H41.9655C39.092 47.8435 36.7585 45.6326 35.4458 43.2522L35.4479 43.2518C37.1739 43.2367 38.7863 42.7453 40.16 41.9026C40.614 41.6241 41.042 41.3073 41.4393 40.9565H42.5394C43.4903 40.9565 44.2611 41.7274 44.2611 42.6783V47.2696C44.2611 47.5865 44.0042 47.8435 43.6872 47.8435Z" fill="#00CBFE"/>
<path d="M43.6872 47.8435H41.9655C39.092 47.8435 36.7585 45.6326 35.4458 43.2522L35.4479 43.2518C37.1739 43.2367 38.7863 42.7453 40.16 41.9026C40.614 41.6241 41.042 41.3073 41.4393 40.9565H42.5394C43.4903 40.9565 44.2611 41.7274 44.2611 42.6783V47.2696C44.2611 47.5865 44.0042 47.8435 43.6872 47.8435Z" fill="url(#paint0_linear_11_12651)"/>
<path d="M33.0696 46.6957C33.0696 47.3296 32.5557 47.8435 31.9217 47.8435H27.3304C26.6965 47.8435 26.1826 47.3296 26.1826 46.6957V34.0696C26.1826 28.9982 30.2938 24.887 35.3652 24.887C40.4366 24.887 44.5478 28.9982 44.5478 34.0696C44.5478 37.3838 42.792 40.288 40.1598 41.9026C38.7861 42.7452 37.1737 43.2366 35.4477 43.2518L35.4459 43.2522C34.6646 41.9015 34.2174 40.3334 34.2174 38.6609C34.2174 38.6362 34.2175 38.6115 34.2177 38.5869C34.2225 37.9718 34.7501 37.513 35.3652 37.513C37.267 37.513 38.8087 35.9714 38.8087 34.0696C38.8087 32.1678 37.267 30.6261 35.3652 30.6261C34.0974 30.6261 33.0696 31.6539 33.0696 32.9217V46.6957Z" fill="#0049FC"/>
<path d="M66.1702 31.928C65.6447 31.6996 65.1192 31.5853 64.5937 31.5853C63.5198 31.5853 62.5944 31.9737 61.8176 32.7503C61.0407 33.5269 60.6523 34.4521 60.6523 35.5256V46.5242H58.3218V35.5256C58.3218 34.2922 58.6417 33.1729 59.2814 32.1678C59.944 31.1399 60.8008 30.3747 61.8519 29.8722L61.9204 29.8379C62.7658 29.4496 63.6569 29.2554 64.5937 29.2554C66.056 29.2554 67.3584 29.7009 68.5008 30.5917L66.1702 31.928Z" fill="#1E1983"/>
<path d="M85.1188 29.8379V46.5242H82.754V43.372C81.1774 45.5877 79.0753 46.6955 76.4478 46.6955C74.8712 46.6955 73.4203 46.3186 72.0951 45.5648C70.7699 44.7882 69.7189 43.7375 68.942 42.4126C68.188 41.0877 67.811 39.6487 67.811 38.0954C67.811 36.5193 68.188 35.0688 68.942 33.7439C69.7189 32.4191 70.7699 31.3798 72.0951 30.626C73.4203 29.8493 74.8712 29.461 76.4478 29.461C78.07 29.461 79.3952 29.8036 80.4234 30.4889C81.4744 31.1513 82.2513 31.8709 82.754 32.6475V29.8379H85.1188ZM76.4478 44.3656C77.5902 44.3656 78.6412 44.0915 79.6009 43.5433C80.5605 42.9722 81.3145 42.207 81.8629 41.2476C82.4341 40.2883 82.7197 39.2375 82.7197 38.0954C82.7197 36.9533 82.4341 35.9025 81.8629 34.9432C81.3145 33.9609 80.5605 33.1957 79.6009 32.6475C78.6412 32.0765 77.5902 31.7909 76.4478 31.7909C75.3053 31.7909 74.2429 32.0765 73.2604 32.6475C72.3008 33.1957 71.5353 33.9609 70.9641 34.9432C70.4158 35.9025 70.1416 36.9533 70.1416 38.0954C70.1416 39.2375 70.4158 40.2883 70.9641 41.2476C71.5353 42.207 72.3008 42.9722 73.2604 43.5433C74.2429 44.0915 75.3053 44.3656 76.4478 44.3656Z" fill="#1E1983"/>
<path d="M89.5809 41.9329C89.7637 42.5725 90.0493 43.075 90.4377 43.4405C91.0775 44.0344 92.0143 44.3314 93.2481 44.3314C94.322 44.3314 95.1902 44.0801 95.8528 43.5776C96.5154 43.075 96.8467 42.424 96.8467 41.6245C96.8467 40.8707 96.6982 40.3111 96.4012 39.9456C96.1042 39.5802 95.7157 39.3517 95.2359 39.2604C94.779 39.1462 94.1392 39.0776 93.3167 39.0548C92.1285 38.9863 91.1575 38.8606 90.4035 38.6779C89.6495 38.4723 88.964 38.0269 88.3471 37.3416C87.5931 36.4051 87.2161 35.3772 87.2161 34.2579C87.2161 33.9838 87.2275 33.7782 87.2504 33.6412C87.4332 32.2021 88.0387 31.1057 89.0668 30.3519C90.095 29.5752 91.4774 29.1869 93.2138 29.1869H93.2481C94.5276 29.1869 95.5672 29.4267 96.3669 29.9064C97.1666 30.3861 97.7835 30.9686 98.2177 31.6539C98.6746 32.4077 98.9602 33.1957 99.0745 34.0181H96.6754C96.6297 33.6983 96.4812 33.3214 96.2298 32.8874C95.6586 32.0194 94.6647 31.5625 93.2481 31.5168C91.8087 31.5168 90.8604 31.7567 90.4035 32.2364C89.9465 32.716 89.6723 33.2757 89.5809 33.9153C89.5581 34.0066 89.5467 34.1323 89.5467 34.2922C89.5467 34.8404 89.7409 35.3315 90.1293 35.7655C90.4492 36.1538 90.8604 36.4165 91.3631 36.5535C91.8658 36.6678 92.5855 36.7591 93.5223 36.8277C94.2763 36.8733 94.916 36.9419 95.4416 37.0332C95.9899 37.1246 96.504 37.2959 96.9838 37.5472C98.469 38.3467 99.2116 39.7058 99.2116 41.6245C99.2116 42.287 99.0745 42.9266 98.8003 43.5433C98.549 44.1372 98.1834 44.6626 97.7036 45.1194C96.6297 46.1702 95.156 46.6955 93.2824 46.6955C91.4545 46.6955 89.9693 46.1816 88.8269 45.1537C87.9358 44.2857 87.3875 43.2121 87.1818 41.9329H89.5809Z" fill="#1E1983"/>
<path d="M108.419 46.6613C107.186 46.6613 106.043 46.3643 104.992 45.7704C103.964 45.1537 103.141 44.3314 102.525 43.3035C101.908 42.2527 101.599 41.1106 101.599 39.8771V29.3925H103.964V39.8771C103.964 40.6766 104.158 41.419 104.547 42.1042C104.958 42.7895 105.506 43.3377 106.192 43.7489C106.877 44.1372 107.62 44.3314 108.419 44.3314C109.219 44.3314 109.962 44.1372 110.647 43.7489C111.333 43.3377 111.87 42.7895 112.258 42.1042C112.669 41.419 112.875 40.6766 112.875 39.8771V29.3925H115.205V46.3529H112.875V44.7083C112.304 45.3478 111.63 45.8389 110.853 46.1816C110.099 46.5014 109.288 46.6613 108.419 46.6613Z" fill="#1E1983"/>
<path d="M126.012 31.7224H123.167V46.5242H120.802V31.7224H117.958V29.3925H120.802V23.739H123.167V29.3925H126.012V31.7224Z" fill="#1E1983"/>
<path d="M144.409 29.8379V46.5242H142.044V43.372C140.467 45.5877 138.365 46.6955 135.738 46.6955C134.161 46.6955 132.71 46.3186 131.385 45.5648C130.06 44.7882 129.009 43.7375 128.232 42.4126C127.478 41.0877 127.101 39.6487 127.101 38.0954C127.101 36.5193 127.478 35.0688 128.232 33.7439C129.009 32.4191 130.06 31.3798 131.385 30.626C132.71 29.8493 134.161 29.461 135.738 29.461C137.36 29.461 138.685 29.8036 139.713 30.4889C140.764 31.1513 141.541 31.8709 142.044 32.6475V29.8379H144.409ZM135.738 44.3656C136.88 44.3656 137.931 44.0915 138.891 43.5433C139.85 42.9722 140.604 42.207 141.153 41.2476C141.724 40.2883 142.01 39.2375 142.01 38.0954C142.01 36.9533 141.724 35.9025 141.153 34.9432C140.604 33.9609 139.85 33.1957 138.891 32.6475C137.931 32.0765 136.88 31.7909 135.738 31.7909C134.595 31.7909 133.533 32.0765 132.55 32.6475C131.591 33.1957 130.825 33.9609 130.254 34.9432C129.706 35.9025 129.432 36.9533 129.432 38.0954C129.432 39.2375 129.706 40.2883 130.254 41.2476C130.825 42.207 131.591 42.9722 132.55 43.5433C133.533 44.0915 134.595 44.3656 135.738 44.3656Z" fill="#1E1983"/>
<defs>
<linearGradient id="paint0_linear_11_12651" x1="38.9165" y1="41.8533" x2="44.2611" y2="47.3413" gradientUnits="userSpaceOnUse">
<stop stop-color="#0049FC"/>
<stop offset="1" stop-color="#00CBFE"/>
</linearGradient>
</defs>
</svg>
