<svg width="166" height="72" viewBox="0 0 166 72" fill="none" xmlns="http://www.w3.org/2000/svg">
<path d="M50.7406 32.5061C50.7406 39.8126 44.8126 45.7406 37.5061 45.7406H24.2715V32.5061C24.2715 25.1995 30.1995 19.2715 37.5061 19.2715C44.8402 19.2715 50.7406 25.1995 50.7406 32.5061ZM37.5061 25.8888C33.839 25.8888 30.8888 28.839 30.8888 32.5061V39.1233H37.5061C41.1731 39.1233 44.1233 36.1731 44.1233 32.5061C44.1233 28.8665 41.1731 25.8888 37.5061 25.8888Z" fill="#5468FF"/>
<path opacity="0.8" d="M30.8888 39.1233H24.2715V45.7406H30.8888V39.1233Z" fill="#1634E2"/>
<path d="M30.8888 45.7407H24.2715V52.358H30.8888V45.7407Z" fill="#1634E2"/>
<path opacity="0.4" d="M37.5064 39.1233H30.8892V45.7406H37.5064V39.1233Z" fill="#1634E2"/>
<path opacity="0.4" d="M30.8888 32.5061H24.2715V39.1234H30.8888V32.5061Z" fill="#1634E2"/>
<path d="M132.635 45.5765C127.572 45.5765 123.697 41.6929 123.697 36.7219C123.749 31.8027 127.624 28.0226 132.687 28.0226C137.75 28.0226 141.728 31.9062 141.728 36.8254C141.677 41.7447 137.698 45.5765 132.635 45.5765ZM136.717 36.7737C136.717 34.3399 134.96 32.5276 132.687 32.5276C130.362 32.5276 128.657 34.3399 128.657 36.8254C128.657 39.2592 130.362 41.0715 132.687 41.0715C135.012 41.0197 136.717 39.2074 136.717 36.7737Z" fill="#223446"/>
<path d="M114.449 51.3242C113.984 51.3242 113.725 51.117 113.725 50.7028C113.725 49.7707 113.725 48.8387 113.674 47.9584C113.674 47.6477 113.932 47.4406 114.19 47.4406C114.19 47.4406 114.294 47.4406 114.604 47.3888C115.585 47.337 116.515 46.9228 116.567 45.8354L116.67 29.0583C116.67 28.7476 116.877 28.5404 117.187 28.5404H120.752C121.062 28.5404 121.268 28.7476 121.268 29.0583L121.217 45.7318C121.165 48.528 120.08 50.5475 117.755 51.1171C117.084 51.2724 116.515 51.3242 115.947 51.3242H114.449ZM116.102 23.1552C116.102 24.7604 117.394 26.0032 118.944 26.0032C120.545 26.0032 121.785 24.7086 121.785 23.1034C121.785 21.4982 120.545 20.2554 118.892 20.3072C117.342 20.3072 116.102 21.4982 116.102 23.1552Z" fill="#223446"/>
<path d="M59.0122 50.8064V29.0582C59.0122 28.7476 59.2189 28.5404 59.5289 28.5404H63.0937C63.2487 28.5404 63.3521 28.644 63.3521 28.7993V29.8867C65.1087 28.3333 67.382 27.8673 69.6036 28.1262C71.8252 28.3851 73.6851 29.4725 75.0284 31.2848C77.405 34.5988 77.25 39.7769 74.6667 42.8838C72.1352 45.9389 68.4153 46.4049 63.8687 44.2301V50.7546C63.8687 51.0653 63.6621 51.2724 63.3521 51.2724H59.5805C59.2705 51.3242 59.0122 51.117 59.0122 50.8064ZM63.7654 36.8772C63.7654 39.4663 65.367 41.2268 67.692 41.2268C70.0686 41.2268 71.7735 39.3109 71.7218 36.8254C71.6702 34.3399 69.9652 32.5276 67.6403 32.5794C65.3154 32.5794 63.7654 34.2881 63.7654 36.8772Z" fill="#223446"/>
<path d="M82.8815 45.1104H79.2132C78.9032 45.1104 78.6966 44.9033 78.6966 44.5926V29.0583C78.6966 28.7476 78.9032 28.5404 79.2132 28.5404H82.8815C83.1914 28.5404 83.3981 28.7476 83.3981 29.0583V44.5926C83.3981 44.9033 83.1398 45.1104 82.8815 45.1104ZM78.1283 23.1552C78.1283 24.7604 79.4199 26.0032 80.9698 26.0032C82.5715 26.0032 83.8114 24.7086 83.8114 23.1034C83.8114 21.4982 82.5715 20.2554 80.9182 20.3072C79.3682 20.3072 78.1283 21.4982 78.1283 23.1552Z" fill="#223446"/>
<path d="M111.762 45.0587H107.939C107.629 45.0587 107.422 44.8515 107.422 44.5408V43.4534C107.422 40.9162 107.422 38.5342 107.422 35.9969C107.422 33.7703 106.337 32.4758 104.477 32.5276C102.721 32.5794 101.688 33.7703 101.636 35.8934C101.636 35.0649 101.584 34.2364 101.481 33.4079C101.326 32.1651 100.913 31.1295 100.293 30.3528C100.293 30.3528 100.448 30.1974 100.809 29.9385C102.308 28.644 104.116 28.178 105.976 28.178C109.282 28.178 111.711 30.1457 112.072 33.4079C112.331 35.6863 112.227 37.9646 112.279 40.243C112.279 41.6929 112.279 43.0392 112.279 44.5926C112.279 44.8515 112.072 45.0587 111.762 45.0587ZM90.2179 29.8868V28.7476C90.2179 28.5922 90.1146 28.4887 89.9596 28.4887C89.3912 28.4887 87.893 28.4369 86.808 28.4369C86.498 28.4369 86.2914 28.644 86.2914 28.9547V44.5926C86.2914 44.9033 86.498 45.1104 86.808 45.1104H90.5279C90.8379 45.1104 91.0445 44.9033 91.0445 44.5926C91.0445 42.9874 91.0445 38.1717 91.0445 35.9452C91.0445 33.8221 92.0778 32.5794 93.8861 32.5276C95.6944 32.4758 96.7794 33.7703 96.831 35.9969C96.831 38.1717 96.831 42.9356 96.831 44.5926C96.831 44.9033 97.0377 45.1104 97.3477 45.1104H101.171C101.481 45.1104 101.688 44.9033 101.688 44.5926C101.688 43.091 101.688 41.7447 101.688 40.243C101.636 37.9646 101.739 35.6863 101.481 33.4079C101.119 30.0939 98.691 28.178 95.3844 28.178C93.5761 28.1262 91.7162 28.5922 90.2179 29.8868Z" fill="#223446"/>
</svg>
