<svg width="166" height="72" viewBox="0 0 166 72" fill="none" xmlns="http://www.w3.org/2000/svg">
<path d="M29.5232 29.2403C29.4634 29.0235 29.5691 28.8598 29.6785 28.6887C30.0775 28.0636 30.6301 27.5827 31.1431 27.0646C33.3974 25.2964 35.9699 24.6192 38.7832 24.8406C41.4871 25.0536 43.5097 26.4395 44.9191 28.7287C46.962 32.0475 47.3058 35.6146 46.2807 39.3474C46.1621 39.7808 46.0187 39.8236 45.6712 39.5362C44.6148 38.6628 43.5217 37.8414 42.3881 37.0731C41.8944 36.7392 41.3832 36.4388 40.8582 36.1588C40.6946 36.0713 40.4344 36.0211 40.4546 35.7755C40.4767 35.516 40.7405 35.5039 40.9345 35.4333C41.6893 35.1542 42.4368 34.8556 43.199 34.6008C43.5888 34.4705 43.7451 34.3152 43.6734 33.8483C43.3893 31.9963 42.788 30.2997 41.4439 28.9575C40.1622 27.6767 38.5368 27.1753 36.7955 27.019C34.2865 26.7939 32.0606 27.5827 30.0472 29.0635C29.8891 29.1798 29.7567 29.3593 29.5232 29.2403Z" fill="#4336FF"/>
<path d="M27.8446 35.8926C27.9374 34.5058 28.1649 33.3392 28.5447 32.2037C28.7155 31.6938 28.844 31.6596 29.2423 32.0175C30.7214 33.3435 32.256 34.5975 33.9236 35.6769C34.0382 35.751 34.172 35.8241 34.1619 35.9903C34.1491 36.1955 33.9663 36.2095 33.829 36.2545C32.9699 36.534 32.1091 36.8105 31.246 37.0777C31.0174 37.1483 30.8615 37.2409 30.8867 37.5213C31.0598 39.4091 31.5364 41.1774 32.8276 42.6299C33.805 43.7292 35.044 44.3664 36.4442 44.7084C39.1856 45.3775 41.7167 44.8322 44.0776 43.3313C44.2073 43.2488 44.3302 43.1557 44.4599 43.074C44.5726 43.0028 44.6948 42.8808 44.8236 43.0272C44.9498 43.1707 44.8801 43.311 44.7775 43.4441C44.5147 43.7879 44.244 44.1247 43.9228 44.4146C41.6708 46.4493 39.0069 47.2278 36.0338 47.0324C34.5601 46.9357 33.1818 46.5137 31.9439 45.6857C31.253 45.2232 30.7141 44.5908 30.2093 43.9366C28.8744 42.2047 28.1832 40.2133 27.91 38.052C27.8113 37.2663 27.764 36.4867 27.8446 35.8926Z" fill="#02AFF9"/>
<path d="M53.4573 31.5937C53.4168 31.7211 53.3947 31.8123 53.3598 31.8978C52.1214 34.9302 50.4665 37.6862 48.1083 39.9735C47.8996 40.1762 47.6651 40.353 47.4528 40.552C47.2946 40.6999 47.0997 40.8208 46.9195 40.6999C46.7145 40.5623 46.8965 40.3651 46.9545 40.2023C48.7086 35.3004 47.9235 30.8328 44.6974 26.7931C44.3535 26.3625 43.9233 26.0016 43.5307 25.61C43.4222 25.5011 43.2687 25.3979 43.368 25.2221C43.4856 25.0128 43.6539 25.13 43.8083 25.1942C46.6575 26.3783 48.6011 28.4962 49.9213 31.2579C49.9608 31.3416 50.0022 31.4244 50.0408 31.509C50.484 32.4801 50.4858 32.4866 51.4907 32.0801C52.0138 31.869 52.5296 31.6355 53.0435 31.4021C53.2964 31.2877 53.4122 31.3751 53.4573 31.5937Z" fill="#4336FF"/>
<path d="M30.5087 46.4809C30.3832 46.4258 30.2361 46.381 30.1089 46.3026C28.9702 45.6029 27.8236 44.9158 26.9336 43.8801C25.7976 42.5585 24.9414 41.0718 24.3255 39.4377C24.1015 38.8428 24.0857 38.8254 23.4989 39.0259C22.8476 39.2487 22.2068 39.5027 21.5612 39.7424C21.4218 39.7938 21.2828 39.8965 21.1373 39.7539C20.99 39.6104 21.0822 39.46 21.1424 39.3268C22.6136 36.077 24.5656 33.1907 27.3617 30.9461C27.4332 30.8889 27.5084 30.8336 27.5834 30.7812C27.7144 30.6903 27.857 30.6101 28.0014 30.735C28.153 30.8657 28.0635 31.0171 27.9993 31.1566C27.5584 32.1143 27.2225 33.1083 27.0502 34.1517C26.3373 38.4601 27.3546 42.2726 30.2625 45.5368C30.4265 45.7202 30.6 45.8956 30.7707 46.0729C30.8692 46.1751 30.8878 46.296 30.8201 46.4122C30.7524 46.5273 30.6286 46.4742 30.5087 46.4809Z" fill="#02AFF9"/>
<g clip-path="url(#clip0_1_3273)">
<path d="M63.6382 29.5917H66.2851V39.9816H72.5585V42.2589H63.6382V29.5917Z" fill="#050430"/>
<path d="M76.4539 32.8917V42.2589H73.9703V32.8917H76.4539ZM75.3238 29.5144C75.9479 29.5144 76.4539 30.0204 76.4539 30.6445C76.4539 31.2686 75.9479 31.7746 75.3238 31.7746H75.1004C74.4762 31.7746 73.9703 31.2686 73.9703 30.6445C73.9703 30.0204 74.4762 29.5144 75.1004 29.5144H75.3238Z" fill="#050430"/>
<path d="M82.9789 34.705C82.1482 34.705 81.5782 35.0574 81.2688 35.7621C81.1084 36.1345 81.0282 36.61 81.0282 37.1886V42.2589H78.5875V32.9089H80.9508V34.2753C81.2659 33.7941 81.5638 33.4475 81.8446 33.2355C82.3487 32.8574 82.9875 32.6683 83.761 32.6683C84.7292 32.6683 85.5198 32.9233 86.1328 33.4332C86.7516 33.9373 87.061 34.7766 87.061 35.9511V42.2589H84.5516V36.5613C84.5516 36.0686 84.4857 35.6904 84.3539 35.4269C84.1133 34.9457 83.655 34.705 82.9789 34.705Z" fill="#050430"/>
<path d="M97.6595 42.2589H94.7032L92.4602 38.2542L91.4462 39.3113V42.2589H89.0399V29.6347H91.4462V36.4582L94.497 32.9347H97.5306L94.2563 36.5183L97.6595 42.2589Z" fill="#050430"/>
<path d="M106.617 39.5089C106.554 40.0647 106.264 40.629 105.749 41.2019C104.947 42.1128 103.824 42.5683 102.38 42.5683C101.188 42.5683 100.137 42.1845 99.2259 41.4167C98.315 40.649 97.8595 39.4001 97.8595 37.6699C97.8595 36.0485 98.2692 34.8053 99.0884 33.9402C99.9134 33.0751 100.982 32.6425 102.294 32.6425C103.073 32.6425 103.775 32.7886 104.399 33.0808C105.024 33.373 105.539 33.8342 105.946 34.4644C106.313 35.0201 106.551 35.6647 106.66 36.398C106.723 36.8277 106.748 37.4464 106.737 38.2542H100.326C100.36 39.1938 100.655 39.8527 101.211 40.2308C101.549 40.4657 101.956 40.5832 102.431 40.5832C102.936 40.5832 103.345 40.4399 103.66 40.1535C103.832 39.9988 103.984 39.7839 104.116 39.5089H106.617ZM104.193 36.6386C104.153 35.9912 103.955 35.5014 103.6 35.1691C103.251 34.8311 102.815 34.6621 102.294 34.6621C101.727 34.6621 101.286 34.8397 100.97 35.1949C100.661 35.5501 100.466 36.0313 100.386 36.6386H104.193Z" fill="#050430"/>
<path d="M116.656 29.6089V42.2589H114.276V40.9613C113.927 41.517 113.528 41.9209 113.081 42.173C112.635 42.4251 112.079 42.5511 111.414 42.5511C110.32 42.5511 109.398 42.11 108.647 41.2277C107.902 40.3397 107.53 39.2024 107.53 37.816C107.53 36.2175 107.897 34.96 108.63 34.0433C109.369 33.1266 110.354 32.6683 111.586 32.6683C112.153 32.6683 112.658 32.7944 113.099 33.0464C113.54 33.2928 113.898 33.6365 114.173 34.0777V29.6089H116.656ZM110.056 37.6355C110.056 38.5006 110.228 39.191 110.572 39.7066C110.91 40.2279 111.426 40.4886 112.119 40.4886C112.812 40.4886 113.339 40.2308 113.7 39.7152C114.061 39.1996 114.242 38.5321 114.242 37.7128C114.242 36.567 113.952 35.7477 113.374 35.255C113.018 34.9571 112.606 34.8082 112.136 34.8082C111.42 34.8082 110.893 35.0803 110.555 35.6246C110.223 36.1631 110.056 36.8334 110.056 37.6355Z" fill="#050430"/>
<path d="M123.886 35.4699C123.68 35.0173 123.276 34.791 122.674 34.791C121.976 34.791 121.506 35.0173 121.265 35.4699C121.133 35.7277 121.067 36.1115 121.067 36.6214V42.2589H118.584V32.9089H120.964V34.2753C121.268 33.7884 121.554 33.4417 121.824 33.2355C122.299 32.8688 122.915 32.6855 123.671 32.6855C124.388 32.6855 124.966 32.8431 125.407 33.1582C125.763 33.4503 126.032 33.8256 126.215 34.2839C126.536 33.7339 126.934 33.33 127.41 33.0722C127.914 32.8144 128.475 32.6855 129.094 32.6855C129.507 32.6855 129.913 32.7657 130.314 32.9261C130.715 33.0865 131.079 33.3673 131.406 33.7683C131.669 34.0949 131.847 34.4959 131.939 34.9714C131.996 35.2865 132.024 35.7477 132.024 36.355L132.007 42.2589H129.498V36.2949C129.498 35.9397 129.441 35.6475 129.326 35.4183C129.108 34.9829 128.707 34.7652 128.123 34.7652C127.447 34.7652 126.98 35.0459 126.722 35.6074C126.59 35.9053 126.525 36.2634 126.525 36.6816V42.2589H124.058V36.6816C124.058 36.1259 124.001 35.722 123.886 35.4699Z" fill="#050430"/>
<path d="M142.039 39.5089C141.976 40.0647 141.686 40.629 141.171 41.2019C140.369 42.1128 139.246 42.5683 137.802 42.5683C136.61 42.5683 135.559 42.1845 134.648 41.4167C133.737 40.649 133.282 39.4001 133.282 37.6699C133.282 36.0485 133.691 34.8053 134.51 33.9402C135.335 33.0751 136.404 32.6425 137.716 32.6425C138.495 32.6425 139.197 32.7886 139.821 33.0808C140.446 33.373 140.962 33.8342 141.368 34.4644C141.735 35.0201 141.973 35.6647 142.082 36.398C142.145 36.8277 142.17 37.4464 142.159 38.2542H135.748C135.782 39.1938 136.077 39.8527 136.633 40.2308C136.971 40.4657 137.378 40.5832 137.853 40.5832C138.358 40.5832 138.767 40.4399 139.082 40.1535C139.254 39.9988 139.406 39.7839 139.538 39.5089H142.039ZM139.615 36.6386C139.575 35.9912 139.377 35.5014 139.022 35.1691C138.673 34.8311 138.237 34.6621 137.716 34.6621C137.149 34.6621 136.708 34.8397 136.393 35.1949C136.083 35.5501 135.888 36.0313 135.808 36.6386H139.615Z" fill="#050430"/>
</g>
<defs>
<clipPath id="clip0_1_3273">
<rect width="80.4571" height="40.2286" fill="white" transform="translate(62.2573 16)"/>
</clipPath>
</defs>
</svg>
