<svg width="189" height="72" viewBox="0 0 189 72" fill="none" xmlns="http://www.w3.org/2000/svg">
<path d="M61.378 26.4884V37.7698C61.378 41.5302 59.7541 43.093 55.9333 43.093C52.1124 43.093 50.4885 41.5302 50.4885 37.7698V26H46.8109C46.4765 26 46.3333 26.1465 46.3333 26.4884V37.9163C46.3333 44.2163 50.2497 46.414 55.9333 46.414C61.6168 46.414 65.5333 44.2163 65.5333 37.9163V26H61.8556C61.5691 26 61.378 26.1465 61.378 26.4884Z" fill="#636366"/>
<path d="M114.727 29.2721C115.014 29.2721 115.157 29.1744 115.253 28.9302L116.303 26.2442C116.351 26.0977 116.303 26 116.16 26H101.354C99.9691 26 99.4437 26.4395 99.4437 27.4163V44.9C99.4437 45.7302 99.8258 46.0721 100.924 46.0721H114.727C115.014 46.0721 115.157 45.9744 115.253 45.7302L116.303 43.0442C116.351 42.8977 116.303 42.8 116.16 42.8H103.503V39.2349C103.503 38.014 104.172 37.4279 105.939 37.4279H111.432C111.718 37.4279 111.862 37.3302 111.957 37.086L112.96 34.4977C113.008 34.3512 112.96 34.2535 112.817 34.2535H103.456V29.2721H114.727Z" fill="#636366"/>
<path fill-rule="evenodd" clip-rule="evenodd" d="M90.9422 31.0791C90.9422 32.9837 90.2736 34.5953 88.6497 35.4744C90.8467 36.1093 91.8497 38.1116 91.8019 40.5047C91.8019 44.5093 89.0318 46.0721 85.1631 46.0721H74.8944C73.7959 46.0721 73.4138 45.7302 73.4138 44.9V27.4163C73.4138 26.4395 73.9392 26 75.3243 26H83.7303C87.4079 26 90.9422 26.6349 90.9422 31.0791ZM77.5213 29.2233H84.0168C86.1661 29.2233 86.787 30.0535 86.787 31.8116C86.787 33.5209 86.1661 34.4 84.0168 34.4H77.5213V29.2233ZM84.781 42.8488H77.5213V39.186C77.5213 37.9651 78.19 37.3791 79.9571 37.3791H84.781C87.0736 37.3791 87.7422 38.307 87.7422 40.114C87.7422 41.9698 87.0736 42.8488 84.781 42.8488Z" fill="#636366"/>
<path fill-rule="evenodd" clip-rule="evenodd" d="M137.605 38.014L141.999 45.7302C142.094 45.8279 142.094 46.0721 141.76 46.0721H138.035C137.759 46.0721 137.66 45.9368 137.526 45.7528C137.52 45.7453 137.515 45.7378 137.509 45.7302L133.545 38.4047H129.915C128.148 38.4047 127.48 38.9907 127.48 40.2116V46.0721H123.897C123.563 46.0721 123.42 45.9256 123.42 45.5837V27.4163C123.42 26.4395 123.945 26 125.33 26H133.736C138.608 26 141.569 27.3186 141.569 32.2023C141.569 35.9628 139.802 37.4279 137.605 38.014ZM127.48 35.3279H134.309C136.888 35.3279 137.414 34.3023 137.414 32.2512C137.414 30.2488 136.841 29.2233 134.309 29.2233H127.48V35.3279Z" fill="#636366"/>
</svg>
