<svg width="166" height="72" viewBox="0 0 166 72" fill="none" xmlns="http://www.w3.org/2000/svg">
<rect x="16" y="23" width="26.4691" height="26.4691" rx="13.2346" fill="url(#paint0_linear_1_3263)"/>
<rect x="16" y="23" width="26.4691" height="26.4691" rx="13.2346" fill="url(#paint1_linear_1_3263)" fill-opacity="0.56"/>
<path d="M29.2384 27.9629C31.2636 27.9629 33.1792 28.6859 34.6873 30.0084C34.861 30.1607 34.8624 30.4269 34.6991 30.5902L31.7476 33.5417C31.5906 33.6987 31.3391 33.7012 31.1591 33.5712C30.6034 33.1695 29.9379 32.953 29.2397 32.953C27.4277 32.9517 25.9543 34.4251 25.9543 36.2345H20.9629C20.9629 31.6735 24.6761 27.9629 29.2384 27.9629Z" fill="white"/>
<path d="M25.9543 36.2346C25.9543 38.0001 27.3566 39.445 29.1065 39.5148H31.3205C31.5489 39.5148 31.7341 39.7 31.7341 39.9284V44.0924C31.7341 44.3209 31.5488 44.5061 31.3203 44.506L29.1065 44.5049C24.6037 44.4351 20.9629 40.7517 20.9629 36.2346H25.9543Z" fill="white"/>
<path opacity="0.56" d="M33.9491 36.8911H32.4111C32.1827 36.8911 31.9976 37.0763 31.9976 37.3047V38.8414C31.9976 39.0698 32.1827 39.255 32.4111 39.255H33.9491C34.1776 39.255 34.3627 39.0698 34.3627 38.8414V37.3047C34.3627 37.0763 34.1776 36.8911 33.9491 36.8911Z" fill="white"/>
<path opacity="0.4" d="M36.5756 36.8911H35.0376C34.8092 36.8911 34.624 37.0763 34.624 37.3047V38.8414C34.624 39.0698 34.8092 39.255 35.0376 39.255H36.5756C36.804 39.255 36.9892 39.0698 36.9892 38.8414V37.3047C36.9892 37.0763 36.804 36.8911 36.5756 36.8911Z" fill="white"/>
<path opacity="0.72" d="M33.9491 39.5173H32.4111C32.1827 39.5173 31.9976 39.7025 31.9976 39.9309V41.4676C31.9976 41.696 32.1827 41.8812 32.4111 41.8812H33.9491C34.1776 41.8812 34.3627 41.696 34.3627 41.4676V39.9309C34.3627 39.7025 34.1776 39.5173 33.9491 39.5173Z" fill="white"/>
<path opacity="0.72" d="M31.3217 36.8911H29.7837C29.5553 36.8911 29.3701 37.0763 29.3701 37.3047V38.8414C29.3701 39.0698 29.5553 39.255 29.7837 39.255H31.3217C31.5501 39.255 31.7353 39.0698 31.7353 38.8414V37.3047C31.7353 37.0763 31.5501 36.8911 31.3217 36.8911Z" fill="white"/>
<path opacity="0.56" d="M36.5756 39.5173H35.0376C34.8092 39.5173 34.624 39.7025 34.624 39.9309V41.4676C34.624 41.696 34.8092 41.8812 35.0376 41.8812H36.5756C36.804 41.8812 36.9892 41.696 36.9892 41.4676V39.9309C36.9892 39.7025 36.804 39.5173 36.5756 39.5173Z" fill="white"/>
<path opacity="0.88" d="M33.9491 42.1423H32.4111C32.1827 42.1423 31.9976 42.3275 31.9976 42.5559V44.0926C31.9976 44.321 32.1827 44.5062 32.4111 44.5062H33.9491C34.1776 44.5062 34.3627 44.321 34.3627 44.0926V42.5559C34.3627 42.3275 34.1776 42.1423 33.9491 42.1423Z" fill="white"/>
<path opacity="0.72" d="M36.5756 42.1423H35.0376C34.8092 42.1423 34.624 42.3275 34.624 42.5559V44.0926C34.624 44.321 34.8092 44.5062 35.0376 44.5062H36.5756C36.804 44.5062 36.9892 44.321 36.9892 44.0926V42.5559C36.9892 42.3275 36.804 42.1423 36.5756 42.1423Z" fill="white"/>
<path d="M54.0871 47.8148C52.3409 47.8148 50.7903 47.1665 49.4355 45.87C48.9932 45.4469 49.1206 44.7337 49.6466 44.4207L50.0102 44.2044C50.4281 43.9558 50.957 44.0534 51.3235 44.373C52.1376 45.083 53.0589 45.438 54.0871 45.438C54.6681 45.438 55.2227 45.3236 55.7509 45.0947C56.2791 44.8658 56.7368 44.5489 57.1241 44.144C57.5115 43.739 57.8108 43.2725 58.022 42.7443C58.2509 42.2161 58.3654 41.6615 58.3654 41.0806V40.4467C57.1682 41.7848 55.7333 42.4538 54.0607 42.4538C53.1628 42.4538 52.3001 42.2689 51.4727 41.8992C50.6628 41.5119 49.9586 40.9925 49.36 40.3411C48.7614 39.6897 48.286 38.9502 47.9339 38.1228C47.5994 37.2953 47.4321 36.4414 47.4321 35.5611C47.4321 34.6632 47.5994 33.8181 47.9339 33.0259C48.286 32.216 48.7702 31.503 49.3864 30.8868C50.0026 30.2882 50.7068 29.8216 51.4991 29.4871C52.3089 29.1526 53.1628 28.9853 54.0607 28.9853C55.0291 28.9853 55.8917 29.1966 56.6488 29.6191C57.4058 30.0417 57.978 30.517 58.3654 31.0452V30.223C58.3654 29.6707 58.8131 29.223 59.3654 29.223H59.7422C60.2944 29.223 60.7422 29.6707 60.7422 30.223V41.0806C60.7422 41.9961 60.5661 42.8587 60.214 43.6686C59.8795 44.4785 59.4041 45.2003 58.7879 45.8341C58.1893 46.4503 57.4763 46.9345 56.6488 47.2866C55.8389 47.6387 54.985 47.8148 54.0871 47.8148ZM54.0607 31.3885C53.4797 31.3885 52.9252 31.503 52.397 31.7318C51.8688 31.9431 51.4111 32.2512 51.0237 32.6562C50.6364 33.0611 50.3283 33.5364 50.0994 34.0822C49.8705 34.6104 49.7561 35.165 49.7561 35.746C49.7561 36.327 49.8705 36.8904 50.0994 37.4361C50.3283 37.9643 50.6364 38.4221 51.0237 38.8094C51.4111 39.1967 51.8688 39.5048 52.397 39.7337C52.9252 39.9626 53.4797 40.077 54.0607 40.077C54.6417 40.077 55.1963 39.9626 55.7245 39.7337C56.2527 39.5048 56.7104 39.1967 57.0977 38.8094C57.4851 38.4221 57.7844 37.9643 57.9956 37.4361C58.2245 36.8904 58.339 36.327 58.339 35.746C58.339 35.165 58.2245 34.6104 57.9956 34.0822C57.7844 33.5364 57.4851 33.0611 57.0977 32.6562C56.7104 32.2512 56.2527 31.9431 55.7245 31.7318C55.1963 31.503 54.6417 31.3885 54.0607 31.3885Z" fill="#1E1983"/>
<path d="M68.6592 31.2549C68.3773 31.4213 68.0351 31.428 67.7215 31.3341C67.4898 31.2648 67.2738 31.2301 67.0737 31.2301C66.3694 31.2301 65.7884 31.4766 65.3307 31.9695C64.8377 32.4977 64.5912 33.1051 64.5912 33.7917V41.1897C64.5912 41.742 64.1435 42.1897 63.5912 42.1897H63.3201C62.7678 42.1897 62.3201 41.742 62.3201 41.1897V33.7917C62.3201 32.841 62.5578 31.9695 63.0331 31.1773C63.5261 30.385 64.1951 29.7688 65.0402 29.3286C65.674 29.0294 66.3518 28.8797 67.0737 28.8797C67.6546 28.8797 68.2092 28.9853 68.7374 29.1966C68.8956 29.2599 69.0561 29.335 69.2189 29.4219C69.8323 29.7493 69.7665 30.6012 69.1678 30.9547L68.6592 31.2549Z" fill="#1E1983"/>
<path d="M81.0573 42.1897C80.505 42.1897 80.0573 41.742 80.0573 41.1897V40.1827C79.4939 40.8341 78.8425 41.3534 78.103 41.7408C77.3636 42.1281 76.5801 42.3218 75.7526 42.3218C74.8371 42.3218 73.9745 42.1545 73.1646 41.82C72.3723 41.4855 71.6681 41.0101 71.0519 40.3939C70.4357 39.7953 69.9515 39.0911 69.5994 38.2812C69.2649 37.4537 69.0976 36.5911 69.0976 35.6932C69.0976 34.7953 69.2649 33.9414 69.5994 33.1315C69.9515 32.304 70.4357 31.5822 71.0519 30.966C71.6681 30.3498 72.3723 29.8744 73.1646 29.5399C73.9745 29.2054 74.8371 29.0382 75.7526 29.0382C76.5977 29.0382 77.39 29.2142 78.1294 29.5663C78.8865 29.9184 79.5291 30.4114 80.0573 31.0452V30.3022C80.0573 29.75 80.505 29.3022 81.0573 29.3022H81.4341C81.9864 29.3022 82.4341 29.75 82.4341 30.3022V41.1897C82.4341 41.742 81.9864 42.1897 81.4341 42.1897H81.0573ZM75.7526 31.3885C75.1717 31.3885 74.6083 31.503 74.0625 31.7318C73.5343 31.9431 73.0766 32.2424 72.6892 32.6297C72.3019 33.0171 71.9938 33.4836 71.7649 34.0294C71.5537 34.5576 71.448 35.1122 71.448 35.6932C71.448 36.2742 71.5537 36.8287 71.7649 37.3569C71.9938 37.8851 72.3019 38.3428 72.6892 38.7302C73.0766 39.1175 73.5343 39.4256 74.0625 39.6545C74.6083 39.8657 75.1717 39.9714 75.7526 39.9714C76.3336 39.9714 76.8882 39.8657 77.4164 39.6545C77.9446 39.4256 78.4023 39.1175 78.7897 38.7302C79.177 38.3428 79.4763 37.8851 79.6876 37.3569C79.9164 36.8287 80.0309 36.2742 80.0309 35.6932C80.0309 35.1122 79.9164 34.5576 79.6876 34.0294C79.4763 33.4836 79.177 33.0171 78.7897 32.6297C78.4023 32.2424 77.9446 31.9431 77.4164 31.7318C76.8882 31.503 76.3336 31.3885 75.7526 31.3885Z" fill="#1E1983"/>
<path d="M89.478 47.8148C88.4745 47.8148 87.5413 47.5595 86.6787 47.0489C86.1002 46.6994 85.5712 46.2427 85.0917 45.6787C84.7196 45.241 84.8792 44.589 85.3767 44.3019L85.6909 44.1207C86.1546 43.8531 86.7357 44.0118 87.1121 44.3925C87.3365 44.6194 87.5794 44.8095 87.8406 44.9626C88.3512 45.2795 88.897 45.438 89.478 45.438C90.4111 45.438 91.221 45.0947 91.9076 44.4081C92.2245 44.0912 92.4622 43.7214 92.6206 43.2989C92.7967 42.8763 92.8847 42.4274 92.8847 41.952V41.0277C92.4798 41.4503 91.9692 41.7936 91.353 42.0577C90.7368 42.3042 90.1118 42.4274 89.478 42.4274C88.7033 42.4274 87.9727 42.2866 87.2861 42.0049C86.5994 41.7056 85.992 41.2918 85.4639 40.7636C84.9181 40.2355 84.4955 39.6281 84.1962 38.9414C83.8969 38.2372 83.7473 37.4978 83.7473 36.7231V29.9853C83.7473 29.4331 84.195 28.9853 84.7473 28.9853H85.0713C85.6235 28.9853 86.0713 29.4331 86.0713 29.9853V36.5647C86.0713 37.1809 86.2209 37.7619 86.5202 38.3076C86.8371 38.8358 87.2508 39.2583 87.7614 39.5753C88.2896 39.8922 88.8618 40.0506 89.478 40.0506C90.0942 40.0506 90.6664 39.901 91.1946 39.6017C91.7227 39.2848 92.1365 38.8622 92.4358 38.334C92.7351 37.7883 92.8847 37.1985 92.8847 36.5647V29.9853C92.8847 29.4331 93.3324 28.9853 93.8847 28.9853H94.2087C94.761 28.9853 95.2087 29.4331 95.2087 29.9853V41.952C95.2087 42.7443 95.059 43.5014 94.7597 44.2232C94.478 44.945 94.0731 45.57 93.5449 46.0982C92.9992 46.644 92.3742 47.0665 91.6699 47.3658C90.9833 47.6651 90.2526 47.8148 89.478 47.8148Z" fill="#1E1983"/>
<path d="M102.937 47.8148C101.191 47.8148 99.6404 47.1665 98.2855 45.87C97.8433 45.4469 97.9706 44.7337 98.4966 44.4207L98.8602 44.2044C99.2781 43.9558 99.807 44.0534 100.174 44.373C100.988 45.083 101.909 45.438 102.937 45.438C103.518 45.438 104.073 45.3236 104.601 45.0947C105.129 44.8658 105.587 44.5489 105.974 44.144C106.362 43.739 106.661 43.2725 106.872 42.7443C107.101 42.2161 107.215 41.6615 107.215 41.0806V40.4467C106.018 41.7848 104.583 42.4538 102.911 42.4538C102.013 42.4538 101.15 42.2689 100.323 41.8992C99.5128 41.5119 98.8086 40.9925 98.21 40.3411C97.6114 39.6897 97.1361 38.9502 96.7839 38.1228C96.4494 37.2953 96.2822 36.4414 96.2822 35.5611C96.2822 34.6632 96.4494 33.8181 96.7839 33.0259C97.1361 32.216 97.6202 31.503 98.2364 30.8868C98.8526 30.2882 99.5569 29.8216 100.349 29.4871C101.159 29.1526 102.013 28.9853 102.911 28.9853C103.879 28.9853 104.742 29.1966 105.499 29.6191C106.256 30.0417 106.828 30.517 107.215 31.0452V30.223C107.215 29.6707 107.663 29.223 108.215 29.223H108.592C109.144 29.223 109.592 29.6707 109.592 30.223V41.0806C109.592 41.9961 109.416 42.8587 109.064 43.6686C108.73 44.4785 108.254 45.2003 107.638 45.8341C107.039 46.4503 106.326 46.9345 105.499 47.2866C104.689 47.6387 103.835 47.8148 102.937 47.8148ZM102.911 31.3885C102.33 31.3885 101.775 31.503 101.247 31.7318C100.719 31.9431 100.261 32.2512 99.8738 32.6562C99.4864 33.0611 99.1783 33.5364 98.9495 34.0822C98.7206 34.6104 98.6061 35.165 98.6061 35.746C98.6061 36.327 98.7206 36.8904 98.9495 37.4361C99.1783 37.9643 99.4864 38.4221 99.8738 38.8094C100.261 39.1967 100.719 39.5048 101.247 39.7337C101.775 39.9626 102.33 40.077 102.911 40.077C103.492 40.077 104.046 39.9626 104.575 39.7337C105.103 39.5048 105.56 39.1967 105.948 38.8094C106.335 38.4221 106.634 37.9643 106.846 37.4361C107.075 36.8904 107.189 36.327 107.189 35.746C107.189 35.165 107.075 34.6104 106.846 34.0822C106.634 33.5364 106.335 33.0611 105.948 32.6562C105.56 32.2512 105.103 31.9431 104.575 31.7318C104.046 31.503 103.492 31.3885 102.911 31.3885Z" fill="#1E1983"/>
<path d="M117.509 31.2549C117.227 31.4213 116.885 31.428 116.572 31.3341C116.34 31.2648 116.124 31.2301 115.924 31.2301C115.219 31.2301 114.638 31.4766 114.181 31.9695C113.688 32.4977 113.441 33.1051 113.441 33.7917V41.1897C113.441 41.742 112.994 42.1897 112.441 42.1897H112.17C111.618 42.1897 111.17 41.742 111.17 41.1897V33.7917C111.17 32.841 111.408 31.9695 111.883 31.1773C112.376 30.385 113.045 29.7688 113.89 29.3286C114.524 29.0294 115.202 28.8797 115.924 28.8797C116.505 28.8797 117.059 28.9853 117.587 29.1966C117.746 29.2599 117.906 29.335 118.069 29.4219C118.682 29.7493 118.617 30.6012 118.018 30.9547L117.509 31.2549Z" fill="#1E1983"/>
<path d="M121 27.0839C120.665 27.0839 120.375 26.9695 120.128 26.7406C119.899 26.4941 119.785 26.2036 119.785 25.8691C119.785 25.5346 119.899 25.2529 120.128 25.024C120.375 24.7775 120.665 24.6543 121 24.6543C121.334 24.6543 121.616 24.7775 121.845 25.024C122.091 25.2529 122.215 25.5346 122.215 25.8691C122.215 26.2036 122.091 26.4941 121.845 26.7406C121.616 26.9695 121.334 27.0839 121 27.0839ZM119.917 42.1897V29.9853C119.917 29.4331 120.365 28.9853 120.917 28.9853H121.135C121.688 28.9853 122.135 29.4331 122.135 29.9853V42.1897H119.917Z" fill="#1E1983"/>
<path d="M134.811 42.1897C134.259 42.1897 133.811 41.742 133.811 41.1897V40.1562C133.248 40.8253 132.578 41.3534 131.804 41.7408C131.047 42.1281 130.255 42.3218 129.427 42.3218C128.494 42.3218 127.622 42.1545 126.813 41.82C126.003 41.4679 125.298 40.9749 124.7 40.3411C124.084 39.7073 123.599 38.9855 123.247 38.1756C122.913 37.3481 122.746 36.4766 122.746 35.5611C122.746 34.6456 122.913 33.7829 123.247 32.9731C123.599 32.1456 124.084 31.4149 124.7 30.7811C125.298 30.1473 126.003 29.6632 126.813 29.3286C127.622 28.9765 128.494 28.8005 129.427 28.8005C130.343 28.8005 131.17 28.9853 131.909 29.3551C132.667 29.7248 133.3 30.2354 133.811 30.8868V25.6543C133.811 25.102 134.259 24.6543 134.811 24.6543H135.135C135.687 24.6543 136.135 25.102 136.135 25.6543V41.1897C136.135 41.742 135.687 42.1897 135.135 42.1897H134.811ZM129.427 31.2037C128.846 31.2037 128.291 31.3181 127.763 31.547C127.235 31.7583 126.777 32.0664 126.39 32.4713C126.003 32.8762 125.695 33.3516 125.466 33.8974C125.237 34.4255 125.122 34.9801 125.122 35.5611C125.122 36.7407 125.545 37.7707 126.39 38.6509C126.777 39.0559 127.235 39.3728 127.763 39.6017C128.291 39.8305 128.846 39.945 129.427 39.945C130.008 39.945 130.563 39.8305 131.091 39.6017C131.637 39.3728 132.103 39.0559 132.49 38.6509C133.336 37.7707 133.758 36.7407 133.758 35.5611C133.758 34.9801 133.644 34.4255 133.415 33.8974C133.186 33.3516 132.878 32.8762 132.49 32.4713C132.103 32.0664 131.637 31.7583 131.091 31.547C130.563 31.3181 130.008 31.2037 129.427 31.2037Z" fill="#1E1983"/>
<path d="M145.213 32.9202C144.724 32.9202 144.324 32.5519 144.084 32.1259C144.065 32.0911 144.044 32.0566 144.023 32.0223C143.688 31.4414 143.028 31.1509 142.042 31.1509C141.514 31.1509 141.109 31.2125 140.827 31.3357C140.457 31.4766 140.176 31.679 139.982 31.9431C139.806 32.2072 139.718 32.4977 139.718 32.8146C139.718 33.2019 139.859 33.5541 140.141 33.871C140.44 34.2055 140.924 34.3815 141.593 34.3991C142.773 34.452 143.723 34.5928 144.445 34.8217C145.185 35.0505 145.748 35.4467 146.135 36.0101C146.54 36.5735 146.743 37.3657 146.743 38.3869C146.743 39.4256 146.347 40.3235 145.554 41.0806C145.167 41.4503 144.709 41.7496 144.181 41.9785C143.671 42.2073 143.134 42.3218 142.57 42.3218H142.174C140.766 42.3218 139.63 41.9168 138.767 41.107C138.306 40.68 137.958 40.1395 137.723 39.4856C137.516 38.9104 137.996 38.3604 138.607 38.3604H138.984C139.458 38.3604 139.837 38.7152 140.098 39.1108C140.165 39.2122 140.24 39.3054 140.325 39.3904C140.73 39.7777 141.294 39.9714 142.016 39.9714C142.209 39.9714 142.35 39.9626 142.438 39.945C143.054 39.9098 143.538 39.7425 143.891 39.4432C144.243 39.1263 144.419 38.739 144.419 38.2812C144.419 37.6474 144.225 37.2337 143.838 37.04C143.45 36.8463 142.702 36.7495 141.593 36.7495C140.202 36.7495 139.137 36.3094 138.398 35.4291C137.799 34.7601 137.5 33.915 137.5 32.8938C137.5 32.665 137.508 32.4889 137.526 32.3657C137.667 31.2213 138.133 30.3498 138.926 29.7512C139.736 29.135 140.801 28.8269 142.121 28.8269C143.09 28.8269 143.935 29.0382 144.656 29.4607C145.167 29.7776 145.607 30.2177 145.977 30.7811C146.323 31.3347 146.55 32.0243 146.658 32.8498C146.661 32.8761 146.648 32.9018 146.624 32.9136C146.615 32.918 146.606 32.9202 146.596 32.9202H145.213Z" fill="#1E1983"/>
<defs>
<linearGradient id="paint0_linear_1_3263" x1="29.2346" y1="23" x2="29.2346" y2="49.4691" gradientUnits="userSpaceOnUse">
<stop stop-color="#3558EA"/>
<stop offset="1" stop-color="#0000FF"/>
</linearGradient>
<linearGradient id="paint1_linear_1_3263" x1="32.7559" y1="26.845" x2="21.0974" y2="61.5823" gradientUnits="userSpaceOnUse">
<stop offset="0.215628" stop-color="#1E1983" stop-opacity="0"/>
<stop offset="0.447191" stop-color="#1E1983" stop-opacity="0.19"/>
<stop offset="0.619792" stop-color="#1E1983"/>
</linearGradient>
</defs>
</svg>
