<svg width="189" height="72" viewBox="0 0 189 72" fill="none" xmlns="http://www.w3.org/2000/svg">
<path d="M58.6908 22.7679C58.253 21.3334 56.7206 20.561 55.2978 21.0024C53.8749 21.4437 53.1087 22.9886 53.5465 24.423L60.5515 46.161C61.044 47.4851 62.4669 48.2575 63.8351 47.8713C65.258 47.4299 66.1336 45.9403 65.6958 44.5058C65.6958 44.4506 58.6908 22.7679 58.6908 22.7679Z" fill="#636366"/>
<path d="M47.855 26.3541C47.4172 24.9196 45.8848 24.1472 44.4619 24.5886C43.0391 25.0299 42.2729 26.5748 42.7107 28.0093L49.7157 49.7472C50.2082 51.0713 51.6311 51.8437 52.9993 51.4575C54.4221 51.0161 55.2978 49.5265 54.86 48.092C54.86 48.0368 47.855 26.3541 47.855 26.3541Z" fill="#636366"/>
<path d="M67.5565 40.8093C68.9794 40.3679 69.7455 38.823 69.3077 37.3886C68.8699 35.9541 67.3376 35.1817 65.9147 35.623L44.2978 42.6299C42.9843 43.1265 42.2182 44.561 42.6012 45.9403C43.0391 47.3748 44.5167 48.2575 45.9396 47.8161C46.049 47.8161 67.5565 40.8093 67.5565 40.8093Z" fill="#636366"/>
<path d="M48.7853 46.9334C50.2082 46.492 52.0142 45.8851 53.9296 45.223C53.4918 43.7886 52.8898 41.9679 52.2331 40.0368L47.0888 41.7472L48.7853 46.9334Z" fill="#636366"/>
<path d="M59.6759 43.3472C61.646 42.6851 63.452 42.1334 64.8202 41.6368C64.3823 40.2024 63.7803 38.3817 63.1236 36.4506L57.9794 38.161L59.6759 43.3472Z" fill="#636366"/>
<path d="M63.9993 29.8299C65.4221 29.3886 66.1883 27.8437 65.7505 26.4093C65.3127 24.9748 63.7804 24.2024 62.3575 24.6437L40.7953 31.7058C39.4818 32.2024 38.7157 33.6368 39.0988 35.0161C39.5366 36.5058 41.0142 37.3886 42.4371 36.892C42.4918 36.892 63.9993 29.8299 63.9993 29.8299Z" fill="#636366"/>
<path d="M45.2828 35.9541C46.7057 35.5127 48.5117 34.9058 50.4271 34.2437C49.7704 32.2575 49.2231 30.4368 48.7306 29.0575L43.5863 30.7679L45.2828 35.9541Z" fill="#636366"/>
<path d="M56.1187 32.423C58.0888 31.761 59.8948 31.2093 61.2629 30.7127C60.6062 28.7265 60.059 26.9058 59.5664 25.5265L54.4221 27.2368L56.1187 32.423Z" fill="#636366"/>
<path d="M89.3923 28.5058C90.3226 28.9472 90.4321 29.223 89.6659 30.6575C88.8998 32.1472 88.7356 32.2024 87.7505 31.8161C86.5465 31.3196 85.0689 30.9334 84.0838 30.9334C82.4968 30.9334 81.457 31.4851 81.457 32.3679C81.457 35.2368 90.5963 33.692 90.5963 39.8713C90.5963 42.961 87.9694 45.0024 84.0291 45.0024C81.9495 45.0024 79.3774 44.2851 77.6261 43.4024C76.7505 42.961 76.6958 42.6851 77.4619 41.1955C78.1187 39.9265 78.3376 39.761 79.2679 40.1472C80.8003 40.8093 82.6609 41.3058 83.9744 41.3058C85.452 41.3058 86.3823 40.6989 86.3823 39.8161C86.3823 37.0024 77.0789 38.3265 77.0789 32.3679C77.0789 29.223 79.7057 27.0713 83.5913 27.0713C85.452 27.2368 87.8052 27.7886 89.3923 28.5058Z" fill="#636366"/>
<path d="M96.7803 21.223V44.1748C96.7803 44.5058 96.3973 44.892 95.9047 44.892H93.4968C92.9495 44.892 92.6211 44.5058 92.6211 44.1748V21.223C92.6211 20.0644 92.9495 20.0093 94.7007 20.0093C96.6709 19.9541 96.7803 20.1196 96.7803 21.223Z" fill="#636366"/>
<path fill-rule="evenodd" clip-rule="evenodd" d="M113.746 43.9541V34.0782C113.746 29.7748 110.845 27.2368 106.248 27.2368C104.168 27.2368 101.87 27.8989 100.228 29.0024C99.3525 29.5541 99.3525 29.8299 100.228 31.2093C101.158 32.5886 101.323 32.6437 102.198 32.1472C103.293 31.4851 104.661 31.0437 105.81 31.0437C108.218 31.0437 109.641 32.1472 109.641 33.9679V35.1265C108.492 34.6299 107.069 34.3541 105.537 34.3541C101.432 34.3541 98.7505 36.561 98.7505 39.8713C98.7505 42.961 101.158 45.0575 104.716 45.0575C106.576 45.0575 108.437 44.2851 109.696 42.8506L109.641 43.8989C109.586 44.4506 109.969 44.8368 110.517 44.8368H112.87C113.362 44.8368 113.746 44.5058 113.746 43.9541ZM105.208 41.7472C103.731 41.7472 102.746 40.9748 102.746 39.8161C102.746 38.3817 104.223 37.2782 106.412 37.2782C107.452 37.2782 108.656 37.4437 109.586 37.8299V39.3748C108.656 40.8644 107.014 41.7472 105.208 41.7472Z" fill="#636366"/>
<path d="M129.999 28.561C130.875 29.0575 130.875 29.3334 129.945 30.823C129.069 32.2024 128.905 32.3127 127.92 31.8161C127.208 31.4299 126.004 31.0989 125.074 31.0989C122.064 31.0989 120.094 33.0851 120.094 36.1196C120.094 39.2644 122.064 41.361 125.074 41.361C126.114 41.361 127.427 40.9748 128.248 40.4782C129.124 39.9817 129.288 39.9817 130.218 41.361C131.039 42.6299 131.039 42.9058 130.273 43.4575C128.959 44.3955 126.825 45.1127 124.964 45.1127C119.437 45.1127 115.716 41.5265 115.716 36.1748C115.716 30.823 119.437 27.292 125.019 27.292C126.77 27.2368 128.741 27.7886 129.999 28.561Z" fill="#636366"/>
<path d="M148.114 42.6851C148.825 43.5679 148.551 43.8989 146.8 44.5058C145.049 45.1679 144.775 45.1127 144.173 44.2851L139.193 37.6093L136.95 39.761V44.1196C136.95 44.4506 136.566 44.8368 136.074 44.8368H133.666C133.119 44.8368 132.79 44.4506 132.79 44.1196V21.223C132.79 20.0644 133.119 20.0093 134.87 20.0093C136.895 20.0093 136.95 20.1748 136.95 21.223V34.2437L143.736 27.6782C144.502 26.961 144.885 27.0161 146.253 27.8989C147.731 28.8368 147.84 29.1127 147.129 29.8299L142.094 34.7955L148.114 42.6851Z" fill="#636366"/>
</svg>
