<svg width="189" height="72" viewBox="0 0 189 72" fill="none" xmlns="http://www.w3.org/2000/svg">
<path fill-rule="evenodd" clip-rule="evenodd" d="M60.2054 25.8396C60.2054 26.8302 59.3414 27.6792 58.3334 27.6792C57.3254 27.6792 56.4614 26.8302 56.4614 25.8396C56.4614 24.8491 57.3254 24 58.3334 24C59.3414 24 60.2054 24.8491 60.2054 25.8396ZM58.3334 29.1887C57.2294 29.1887 56.3654 30.0377 56.3654 31.1226C56.3654 32.2075 57.2294 33.0566 58.3334 33.0566C59.4374 33.0566 60.3014 32.2075 60.3014 31.1226C60.3014 29.9906 59.4374 29.1887 58.3334 29.1887ZM56.3174 36.3113C56.3174 35.2264 57.2294 34.3302 58.3334 34.3302C59.4374 34.3302 60.3974 35.2264 60.3494 36.3113C60.3494 37.3962 59.4374 38.2925 58.3334 38.2925C57.2294 38.2925 56.3174 37.3962 56.3174 36.3113ZM58.3334 39.566C57.2294 39.566 56.3654 40.4151 56.3654 41.5C56.3654 42.5849 57.2294 43.434 58.3334 43.434C59.4374 43.434 60.3014 42.5849 60.3014 41.5C60.3014 40.4623 59.4374 39.566 58.3334 39.566ZM56.4614 46.7358C56.4614 45.7453 57.3254 44.8962 58.3334 44.8962C59.3894 44.8962 60.2054 45.7453 60.2054 46.7358C60.2054 47.7264 59.3414 48.5755 58.3334 48.5755C57.3254 48.5755 56.4614 47.7264 56.4614 46.7358ZM63.5174 28.9528C62.3174 28.9528 61.3094 29.9434 61.3094 31.1226C61.3094 32.3019 62.3174 33.2925 63.5174 33.2925C64.7174 33.2925 65.7254 32.3019 65.7254 31.1226C65.7254 29.9434 64.7174 28.9528 63.5174 28.9528ZM61.2134 36.3585C61.2134 35.0849 62.2694 34.0943 63.5174 34.0943C64.7654 34.0943 65.8214 35.0849 65.8214 36.3585C65.8214 37.6321 64.7654 38.6226 63.5174 38.6226C62.2214 38.6226 61.2134 37.5849 61.2134 36.3585ZM63.5174 39.3302C62.3174 39.3302 61.3094 40.3208 61.3094 41.5C61.3094 42.6792 62.3174 43.6698 63.5174 43.6698C64.7174 43.6698 65.7254 42.6792 65.7254 41.5C65.7254 40.3208 64.7174 39.3302 63.5174 39.3302ZM66.3014 36.3113C66.3014 34.8962 67.5014 33.8113 68.8454 33.8113C70.1894 33.8113 71.2934 34.8962 71.3894 36.3113C71.3894 37.7264 70.2854 38.8113 68.8454 38.8113C67.4054 38.8113 66.3014 37.6321 66.3014 36.3113ZM53.1014 29.4245C52.1894 29.4245 51.4214 30.1792 51.4214 31.0755C51.4214 31.9717 52.1894 32.7264 53.1014 32.7264C54.0134 32.7264 54.7814 31.9717 54.7814 31.0755C54.7814 30.1792 54.0614 29.4245 53.1014 29.4245ZM51.3254 36.3113C51.3254 35.3208 52.0934 34.566 53.1014 34.566C54.1094 34.566 54.8774 35.3208 54.8774 36.3113C54.8774 37.3019 54.1094 38.0566 53.1014 38.0566C52.0934 38.0566 51.3254 37.3019 51.3254 36.3113ZM53.1014 39.8019C52.1894 39.8019 51.4214 40.5566 51.4214 41.4528C51.4214 42.3491 52.1894 43.1038 53.1014 43.1038C54.0134 43.1038 54.7814 42.3491 54.7814 41.4528C54.7814 40.5566 54.0614 39.8019 53.1014 39.8019ZM46.3334 36.3585C46.3334 35.5094 47.0054 34.8491 47.8694 34.8491C48.7334 34.8491 49.4054 35.5094 49.4054 36.3585C49.4054 37.2075 48.7334 37.8679 47.8694 37.8679C47.0054 37.8679 46.3334 37.2075 46.3334 36.3585Z" fill="#636366"/>
<path d="M90.4934 33.1038C90.3014 33.1038 90.1574 33.2925 90.1574 33.434V46.5C90.1574 46.6887 90.3494 46.8302 90.4934 46.8302H92.0774C92.2694 46.8302 92.4134 46.6415 92.4134 46.5V33.434C92.4134 33.2453 92.2214 33.1038 92.0774 33.1038H90.4934Z" fill="#636366"/>
<path d="M91.3574 27.5849C90.4934 27.5849 89.8214 28.2453 89.8214 29.0943C89.8214 29.9434 90.4934 30.6038 91.3574 30.6038C92.2214 30.6038 92.8934 29.9434 92.8934 29.0943C92.8934 28.2453 92.1734 27.5849 91.3574 27.5849Z" fill="#636366"/>
<path d="M124.573 33.1038C124.381 33.1038 124.237 33.2925 124.237 33.434V46.5C124.237 46.6887 124.429 46.8302 124.573 46.8302H126.157C126.349 46.8302 126.493 46.6415 126.493 46.5V33.434C126.493 33.2453 126.301 33.1038 126.157 33.1038H124.573Z" fill="#636366"/>
<path d="M125.341 27.5849C124.477 27.5849 123.805 28.2453 123.805 29.0943C123.805 29.9434 124.477 30.6038 125.341 30.6038C126.205 30.6038 126.877 29.9434 126.877 29.0943C126.877 28.2453 126.205 27.5849 125.341 27.5849Z" fill="#636366"/>
<path fill-rule="evenodd" clip-rule="evenodd" d="M141.548 45.3996C141.538 45.4455 141.514 45.5011 141.455 45.5566C141.455 45.6509 141.355 45.7453 141.155 45.6981L141.232 45.7864C141.222 45.7902 141.213 45.7925 141.205 45.7925H141.055L141.405 46.217H141.605L141.232 45.7864C141.249 45.78 141.268 45.7692 141.29 45.7573C141.338 45.7305 141.397 45.6981 141.455 45.6981C141.555 45.6981 141.555 45.6038 141.555 45.5094C141.555 45.4706 141.555 45.4318 141.548 45.3996ZM140.855 45.7925V45.2264H141.205C141.305 45.2264 141.405 45.2264 141.455 45.3208C141.514 45.3208 141.538 45.3535 141.548 45.3996C141.555 45.3675 141.555 45.3402 141.555 45.3208V45.2264C141.555 45.2264 141.555 45.1321 141.455 45.1321C141.455 45.1321 141.355 45.0377 141.255 45.0377H140.605V46.217H140.805V45.7925H140.855Z" fill="#636366"/>
<path fill-rule="evenodd" clip-rule="evenodd" d="M139.981 45.6509C139.981 45.0849 140.509 44.566 141.085 44.566C141.709 44.566 142.189 45.0377 142.189 45.6509C142.189 46.217 141.661 46.7358 141.085 46.7358C140.509 46.7358 139.981 46.217 139.981 45.6509ZM140.077 45.6509C140.077 46.217 140.509 46.6415 141.085 46.6415C141.613 46.6415 142.093 46.217 142.093 45.6509C142.093 45.0849 141.661 44.6604 141.085 44.6604C140.509 44.6604 140.077 45.0849 140.077 45.6509Z" fill="#636366"/>
<path d="M103.693 35.2264C103.885 35.2264 104.029 35.0377 104.029 34.8962V33.3396C104.029 33.1509 103.837 33.0094 103.693 33.0094H100.285V28.0094C100.285 27.8208 100.093 27.6792 99.9494 27.6792H98.3654C98.1734 27.6792 98.0294 27.8679 98.0294 28.0094V33.0094H96.3494C96.1574 33.0094 96.0134 33.1981 96.0134 33.3396V34.8962C96.0134 35.0849 96.2054 35.2264 96.3494 35.2264H98.0294V42.7736C98.0294 45.0849 99.6134 46.5943 101.917 46.5943H103.597C103.789 46.5943 103.933 46.4057 103.933 46.2642V44.7075C103.933 44.5189 103.741 44.3774 103.597 44.3774H102.157C101.053 44.3774 100.285 43.6226 100.285 42.4434V35.1792H103.693V35.2264Z" fill="#636366"/>
<path d="M137.389 35.2264C137.581 35.2264 137.725 35.0377 137.725 34.8962V33.3396C137.725 33.1509 137.533 33.0094 137.389 33.0094H133.981V28.0094C133.981 27.8208 133.789 27.6792 133.645 27.6792H132.061C131.869 27.6792 131.725 27.8679 131.725 28.0094V33.0094H130.045C129.853 33.0094 129.709 33.1981 129.709 33.3396V34.8962C129.709 35.0849 129.901 35.2264 130.045 35.2264H131.725V42.7736C131.725 45.0849 133.309 46.5943 135.613 46.5943H137.293C137.485 46.5943 137.629 46.4057 137.629 46.2642V44.7075C137.629 44.5189 137.437 44.3774 137.293 44.3774H135.757C134.653 44.3774 133.885 43.6226 133.885 42.4434V35.1792H137.341L137.389 35.2264Z" fill="#636366"/>
<path d="M80.4134 35.2264V46.3585C80.4134 46.5472 80.6054 46.6887 80.7494 46.6887H82.3334C82.5254 46.6887 82.6694 46.5 82.6694 46.3585V35.2264H86.4134C86.6054 35.2264 86.7494 35.0377 86.7494 34.8962V33.3396C86.7494 33.1509 86.5574 33.0094 86.4134 33.0094H82.6694V30.0849C82.6694 28.9057 83.5334 28.1038 84.5414 28.1038H86.4134C86.6054 28.1038 86.7494 27.9151 86.7494 27.7736V26.217C86.7494 26.0283 86.5574 25.8868 86.4134 25.8868H84.6374C82.2854 25.8868 80.4134 27.8208 80.4134 30.0377V33.0094H78.7334C78.5414 33.0094 78.3974 33.1981 78.3974 33.3396V34.8962C78.3974 35.0849 78.5894 35.2264 78.7334 35.2264H80.4134Z" fill="#636366"/>
<path fill-rule="evenodd" clip-rule="evenodd" d="M114.301 32.5849C116.173 32.5849 117.949 33.3396 119.197 34.6604C120.445 35.9811 121.117 37.8208 121.117 39.8491C121.117 44.8962 117.613 47.1604 114.253 47.1604C110.845 47.1604 107.389 44.9434 107.389 39.8491V26.1226C107.389 25.9811 107.533 25.7925 107.725 25.7925H109.309C109.453 25.7925 109.645 25.934 109.645 26.1226V34.4245C110.749 33.3396 112.525 32.5849 114.301 32.5849ZM109.597 39.8962C109.597 42.3962 110.845 45.0377 114.253 45.0377C117.661 45.0377 118.861 42.3962 118.909 39.8962C118.909 36.8774 117.037 34.8019 114.253 34.8019C111.469 34.8019 109.597 36.8302 109.597 39.8962Z" fill="#636366"/>
</svg>
