<svg width="166" height="72" viewBox="0 0 166 72" fill="none" xmlns="http://www.w3.org/2000/svg">
<path d="M29.7563 21.7978C29.7563 20.252 31.0191 19 32.5782 19H33.9889C43.3396 19 50.9198 26.5156 50.9198 35.7868V49.7759C50.9198 51.3217 49.6571 52.5737 48.098 52.5737H46.6871C37.3364 52.5737 29.7563 45.058 29.7563 35.7868V21.7978Z" fill="#00D4D7"/>
<path d="M31.1675 52.574C38.9597 52.574 45.2766 46.3109 45.2766 38.585C45.2766 30.859 38.9597 24.5959 31.1675 24.5959C23.3754 24.5959 17.0586 30.859 17.0586 38.585C17.0586 46.3109 23.3754 52.574 31.1675 52.574Z" fill="#4A6CF7"/>
<path d="M70.2149 45.6734H74.9224L68.3133 27.3936H63.1671L56.5635 45.6734H61.217L62.3111 42.4445H69.1204L70.2149 45.6734ZM67.9776 39.0073H63.4814L65.7131 32.315L67.9776 39.0073ZM83.6119 40.231L80.2583 31.1433H75.2909L81.1956 45.1785L77.8642 52.5738H82.6527L91.7537 31.1433H86.9434L83.6119 40.231ZM97.8045 38.9291C97.8045 36.4293 99.0288 35.7002 101.137 35.7002H102.355V30.987C100.405 30.987 98.8176 32.0286 97.8045 33.565V31.1433H93.3571V45.6734H97.8045V38.9291ZM118.677 38.4083C118.677 33.7993 115.405 30.9349 111.137 30.9349C106.9 30.9349 103.596 33.7993 103.596 38.4083C103.596 43.0173 106.825 45.8816 111.088 45.8816C115.351 45.8816 118.677 43.0173 118.677 38.4083ZM108.124 38.4083C108.124 35.9345 109.528 34.7888 111.137 34.7888C112.697 34.7888 114.154 35.9345 114.154 38.4083C114.154 40.856 112.675 42.0278 111.088 42.0278C109.473 42.0278 108.124 40.856 108.124 38.4083ZM128.309 38.9811C128.309 43.6943 131.375 45.8556 135.124 45.8556C138.867 45.8556 141.962 43.6943 141.962 38.9811V27.5238H139.593V39.0073C139.593 42.3403 137.827 43.7725 135.146 43.7725C132.47 43.7725 130.677 42.3403 130.677 39.0073V27.5238H128.309V38.9811ZM145.91 45.6734H148.271V27.5238H145.91V45.6734Z" fill="#070707"/>
</svg>
