<svg width="189" height="72" viewBox="0 0 189 72" fill="none" xmlns="http://www.w3.org/2000/svg">
<path fill-rule="evenodd" clip-rule="evenodd" d="M73.3261 42.1429C73.756 43.2381 73.8515 44.2857 73.7082 45.3333C73.3739 47.5238 71.9411 49.4286 69.8396 50.2857C69.0754 50.619 68.2635 50.7619 67.4038 50.7619C67.1649 50.7619 66.8784 50.7619 66.6396 50.7143C65.6366 50.619 64.6336 50.2857 63.6306 49.7143C62.4366 49.0476 61.2426 48.0476 59.9052 46.619C58.5679 48.0476 57.4217 49.0476 56.1799 49.7143C55.1769 50.2857 54.1739 50.5714 53.1709 50.7143C53.0515 50.7143 52.9202 50.7262 52.7888 50.7381C52.6575 50.75 52.5261 50.7619 52.4067 50.7619C51.547 50.7619 50.7351 50.619 49.9709 50.2857C47.9172 49.4286 46.3888 47.5714 46.0545 45.3333C45.9112 44.2381 46.0545 43.1905 46.4366 42.1429C46.5799 41.7143 46.7232 41.381 46.8664 41.0476C47.1052 40.5238 47.3441 40 47.5351 39.5238L47.5829 39.4762C49.6844 35 51.8814 30.4762 54.1739 26L54.2694 25.8095C54.5082 25.381 54.747 24.9048 54.9858 24.4286C55.0501 24.3279 55.1144 24.2254 55.1794 24.1218C55.4522 23.6869 55.7372 23.2326 56.0844 22.8095C57.0873 21.6667 58.4247 21 59.9052 21C61.3381 21 62.7232 21.6667 63.6784 22.8571C64.156 23.381 64.4903 23.9524 64.7769 24.4762C65.0157 24.9524 65.2545 25.4286 65.4933 25.8571L65.5888 26.0476C67.9291 30.5238 70.1261 35.0476 72.1799 39.5238H72.2276C72.4187 40 72.6575 40.5237 72.8962 41.0475C73.0395 41.3808 73.1829 41.7619 73.3261 42.1429ZM96.3948 28.4762C96.3948 29.5714 95.5351 30.4286 94.4366 30.4286C93.3381 30.4286 92.4784 29.5714 92.4784 28.4762C92.4784 27.381 93.3381 26.5238 94.4366 26.5238C95.5829 26.5714 96.3948 27.4286 96.3948 28.4762ZM88.4187 32.381V32.8571C88.4187 32.8571 87.5112 31.6667 85.5052 31.6667C82.2575 31.6667 79.7261 34.1429 79.7261 37.5714C79.7261 40.9524 82.2575 43.4762 85.5052 43.4762C87.5112 43.4762 88.4187 42.2381 88.4187 42.2381V42.7619C88.4187 43 88.6097 43.1905 88.8485 43.1905H91.2844V31.9524H88.8485C88.562 31.9524 88.4187 32.1429 88.4187 32.381ZM85.9829 40.7619C87.0814 40.7619 87.9888 40.1905 88.4187 39.5238V35.5238C87.9888 34.9048 87.0336 34.2857 85.9829 34.2857C84.0724 34.2857 82.5918 35.4762 82.5918 37.5238C82.5918 39.5714 84.0724 40.7619 85.9829 40.7619ZM95.8694 31.9524V43.1429H93.0038V31.9524H95.8694ZM132.932 32.8571C132.932 32.8571 133.887 31.6667 135.846 31.6667C139.093 31.6667 141.625 34.1429 141.625 37.5238C141.625 40.9048 139.093 43.4286 135.846 43.4286C133.84 43.4286 132.932 42.1905 132.932 42.1905V42.7143C132.932 42.9524 132.741 43.1429 132.502 43.1429H130.066V26.5714H132.932V32.8571ZM135.368 40.7143C134.269 40.7143 133.41 40.1429 132.932 39.4762V35.4762C133.362 34.8571 134.317 34.2381 135.368 34.2381C137.278 34.2381 138.759 35.4286 138.759 37.4762C138.759 39.5238 137.278 40.7143 135.368 40.7143ZM128.586 43.1905V36.5238C128.586 34.619 128.204 33.5714 127.249 32.7619C126.389 32.0476 125.338 31.6667 124.096 31.6667C122.998 31.6667 121.899 32 121.04 32.8571V32.381C121.04 32.1429 120.849 31.9524 120.61 31.9524H118.317V43.1905H121.183V35.381C121.756 34.7143 122.663 34.2857 123.523 34.2857C125.099 34.2857 125.72 35 125.72 36.8571V43.1905H128.586ZM111.344 31.6667C109.386 31.6667 108.431 32.8571 108.431 32.8571V26.5714H105.565V43.1429H108.001C108.24 43.1429 108.431 42.9524 108.431 42.7143V42.1905C108.431 42.1905 109.338 43.4286 111.344 43.4286C114.592 43.4286 117.123 40.9048 117.123 37.5238C117.171 34.1429 114.64 31.6667 111.344 31.6667ZM108.431 39.4762C108.908 40.1429 109.768 40.7143 110.866 40.7143C112.777 40.7143 114.257 39.5238 114.257 37.4762C114.257 35.4286 112.777 34.2381 110.866 34.2381C109.816 34.2381 108.86 34.8571 108.431 35.4762V39.4762ZM103.129 31.6667C103.989 31.6667 104.466 31.8095 104.466 31.8095V34.4762C104.466 34.4762 102.078 33.6667 100.598 35.381V43.1905H97.7321V31.9524H100.168C100.407 31.9524 100.598 32.1429 100.598 32.381V32.8571C101.075 32.2381 102.222 31.6667 103.129 31.6667ZM59.8575 43.6667C58.2336 41.619 57.1829 39.7143 56.8485 38.1429C56.7052 37.4762 56.6575 36.8571 56.753 36.3333C56.8008 35.8571 56.9918 35.4286 57.2306 35.0952C57.8038 34.2857 58.759 33.7619 59.8575 33.7619C60.956 33.7619 61.959 34.2381 62.4844 35.0952C62.7232 35.4762 62.9142 35.8571 62.962 36.3333C63.0575 36.8571 63.0097 37.4762 62.8664 38.1429C62.5321 39.7143 61.4814 41.619 59.8575 43.6667ZM69.0754 48.5714C70.556 48 71.6067 46.6667 71.7978 45.0952C71.8933 44.2857 71.7978 43.5714 71.6545 42.8095C71.6028 42.6548 71.5371 42.5002 71.4649 42.3304C71.4038 42.1865 71.3381 42.0319 71.2724 41.8571C71.153 41.619 71.0455 41.369 70.9381 41.119C70.8306 40.869 70.7232 40.619 70.6038 40.381V40.3333C68.55 35.9048 66.353 31.381 64.0605 26.9524L63.965 26.7619C63.7261 26.2857 63.4873 25.8095 63.2485 25.381C63.0097 24.9048 62.7232 24.4286 62.3888 24.0476C61.7679 23.3333 60.9082 22.9524 60.0008 22.9524C59.0933 22.9524 58.2336 23.3333 57.6127 24.0476C57.2784 24.4762 56.9918 24.9048 56.753 25.381C56.5142 25.8571 56.2754 26.3333 56.0366 26.7619L55.9411 26.9524C53.6008 31.381 51.4038 35.9048 49.35 40.3333L49.3023 40.381C49.0635 40.8571 48.8247 41.381 48.6336 41.8571C48.4903 42.1905 48.347 42.5238 48.2515 42.8095C47.9172 43.6667 47.8694 44.381 47.9649 45.1429C48.156 46.6667 49.2067 48 50.6873 48.619C51.356 48.8571 52.1202 49 52.9321 48.9048C53.6963 48.8095 54.4605 48.5714 55.2247 48.1429C56.2754 47.5238 57.3739 46.619 58.6157 45.2381C56.6575 42.8095 55.4157 40.5714 54.9858 38.619C54.747 37.7143 54.6993 36.8571 54.8426 36.0952C54.9858 35.3333 55.2247 34.6667 55.6545 34.0476C56.562 32.7619 58.1381 31.9524 59.8575 31.9524C61.5769 31.9524 63.153 32.7143 64.0605 34.0476C64.4903 34.6667 64.7291 35.3333 64.8724 36.0952C64.9679 36.8571 64.9202 37.7143 64.7291 38.619C64.2515 40.5714 63.0575 42.7619 61.0993 45.1905C62.3411 46.5714 63.3918 47.4762 64.4903 48.0952C65.3023 48.5238 66.0187 48.7619 66.7829 48.8571C67.5948 48.9524 68.359 48.8571 69.0754 48.5714Z" fill="#636366"/>
</svg>
