<svg width="166" height="72" viewBox="0 0 166 72" fill="none" xmlns="http://www.w3.org/2000/svg">
<path fill-rule="evenodd" clip-rule="evenodd" d="M31.664 37.2899C31.6382 37.2549 31.6125 37.22 31.5869 37.1853L34.3488 35.1484C36.6625 38.2857 38.4759 40.5518 42.0046 40.5518C44.5165 40.5518 46.504 38.5471 46.504 36.1669H49.9357C49.9357 40.4975 46.3562 43.9835 42.0046 43.9835C36.5988 43.9835 33.8377 40.2382 31.664 37.2899Z" fill="url(#paint0_linear_1_3265)"/>
<path fill-rule="evenodd" clip-rule="evenodd" d="M23.931 31.7818C21.4192 31.7818 19.4317 33.7865 19.4317 36.1667H16C16 31.8361 19.5795 28.3501 23.931 28.3501C29.3368 28.3501 32.098 32.0954 34.2717 35.0437C34.2974 35.0787 34.3231 35.1136 34.3488 35.1483L31.5869 37.1852C29.2732 34.0479 27.4598 31.7818 23.931 31.7818Z" fill="url(#paint1_linear_1_3265)"/>
<path fill-rule="evenodd" clip-rule="evenodd" d="M31.6649 35.0437C33.8387 32.0954 36.6 28.3501 42.0061 28.3501C46.358 28.3501 49.9376 31.8361 49.9376 36.1667H46.5057C46.5057 33.7865 44.5181 31.7818 42.0061 31.7818C38.4772 31.7818 36.6637 34.0479 34.3498 37.1852C34.3242 37.2199 34.2985 37.2548 34.2727 37.2898C32.0989 40.2381 29.3376 43.9834 23.9315 43.9834C19.5797 43.9834 16 40.4974 16 36.1667H19.4319C19.4319 38.547 21.4195 40.5517 23.9315 40.5517C27.4604 40.5517 29.274 38.2855 31.5878 35.1483C31.6134 35.1136 31.6391 35.0787 31.6649 35.0437Z" fill="url(#paint2_linear_1_3265)"/>
<path d="M58.8936 43.9495V28.3501H60.9383V41.9148H67.3279V43.9495H58.8936ZM69.3801 31.6056V29.4353H71.4248V31.6056H69.3801ZM69.3801 43.9495V32.6908H71.4248V43.9495H69.3801ZM97.0058 31.6056V29.4353H99.0505V31.6056H97.0058ZM97.0058 43.9495V32.6908H99.0505V43.9495H97.0058ZM82.9017 36.7941C82.8378 36.3533 82.7419 35.8785 82.5822 35.4038C82.4225 34.929 82.1669 34.4881 81.8793 34.0812C81.5599 33.6742 81.1765 33.3351 80.6653 33.0977C80.1541 32.8604 79.5471 32.7247 78.8123 32.7247C77.8538 32.7247 77.0551 32.9282 76.3842 33.369C76.0647 33.5725 75.8091 33.8099 75.5536 34.0812V32.7247H73.5089V43.9834H75.5536V38.388H75.5855C75.5855 37.7098 75.6494 37.1672 75.8091 36.6924C75.9369 36.2176 76.1286 35.8446 76.3842 35.5733C76.6398 35.302 76.9273 35.0985 77.2468 34.9629C77.5663 34.8272 77.9177 34.7594 78.3011 34.7594C78.8762 34.7594 79.3235 34.8951 79.6749 35.1325C80.0263 35.3698 80.2819 35.709 80.5056 36.082C80.6972 36.4889 80.825 36.8959 80.8889 37.3706C80.9528 37.8454 80.9848 38.2863 80.9848 38.7271V43.9834H83.0614V37.981C82.9975 37.6419 82.9656 37.235 82.9017 36.7941ZM134.536 36.7941C134.472 36.3533 134.376 35.8785 134.216 35.4038C134.056 34.929 133.801 34.4881 133.513 34.0812C133.194 33.6742 132.81 33.3351 132.299 33.0977C131.788 32.8604 131.181 32.7247 130.446 32.7247C129.488 32.7247 128.689 32.9282 128.018 33.369C127.699 33.5725 127.443 33.8099 127.187 34.0812V32.7247H125.143V43.9834H127.187V38.388H127.219C127.219 37.7098 127.283 37.1672 127.443 36.6924C127.571 36.2176 127.763 35.8446 128.018 35.5733C128.274 35.302 128.561 35.0985 128.881 34.9629C129.2 34.8272 129.552 34.7594 129.935 34.7594C130.51 34.7594 130.957 34.8951 131.309 35.1325C131.66 35.3698 131.916 35.709 132.107 36.082C132.299 36.4889 132.427 36.8959 132.491 37.3706C132.555 37.8454 132.587 38.2863 132.587 38.7271V43.9834H134.663V37.981C134.631 37.6419 134.599 37.235 134.536 36.7941ZM94.123 38.8967H95.1454C95.2093 37.608 95.0815 36.5228 94.6981 35.5733C94.3147 34.6577 93.7396 33.9116 93.0048 33.4369C92.2381 32.9282 91.3116 32.6908 90.2573 32.6908C89.2349 32.6908 88.3084 32.9282 87.5417 33.403C86.7749 33.8777 86.1679 34.522 85.7206 35.4038C85.2733 36.2515 85.0816 37.2689 85.0816 38.4219C85.0816 39.5071 85.3053 40.4905 85.7525 41.3383C86.1998 42.1861 86.8068 42.8304 87.6055 43.2713C88.4043 43.746 89.3308 43.9834 90.3851 43.9834C91.4074 43.9834 92.3339 43.7121 93.1965 43.2035C94.0272 42.6948 94.6661 41.9487 95.0815 40.9992L93.0687 40.3549C92.8131 40.8975 92.4298 41.3383 91.9825 41.6096C91.5033 41.9148 90.9601 42.0505 90.3212 42.0505C89.3308 42.0505 88.5959 41.7453 88.0848 41.1009C87.6694 40.5583 87.4139 39.8462 87.35 38.9645H93.1965H94.123V38.8967ZM87.9889 35.5055C88.5001 34.8612 89.2669 34.522 90.2892 34.522C91.2157 34.522 91.9186 34.8273 92.3659 35.4038C92.6853 35.8107 92.909 36.4211 93.0048 37.1672H87.2861C87.4139 36.4889 87.6694 35.9463 87.9889 35.5055ZM106.023 43.9495C104.936 43.9495 104.01 43.7121 103.243 43.2035C102.476 42.7287 101.901 42.0505 101.486 41.2027C101.071 40.3549 100.879 39.3714 100.879 38.3202C100.879 37.235 101.103 36.2515 101.518 35.4038C101.933 34.556 102.508 33.8777 103.275 33.403C104.042 32.9282 104.968 32.6908 106.023 32.6908C107.173 32.6908 108.163 32.996 108.994 33.5725C109.825 34.149 110.368 34.9629 110.623 35.9463L108.579 36.5228C108.387 35.9124 108.035 35.4716 107.588 35.1325C107.141 34.7933 106.598 34.6238 105.991 34.6238C105.32 34.6238 104.777 34.7933 104.329 35.0985C103.882 35.4037 103.563 35.8446 103.371 36.4211C103.147 36.9637 103.052 37.608 103.052 38.3202C103.052 39.4053 103.307 40.321 103.818 40.9992C104.297 41.6774 105.032 42.0165 106.023 42.0165C106.694 42.0165 107.205 41.847 107.62 41.5418C108.035 41.2366 108.355 40.7957 108.547 40.2192L110.623 40.7279C110.272 41.7792 109.697 42.5591 108.898 43.1356C108.131 43.6782 107.141 43.9495 106.023 43.9495ZM117.883 43.9495C116.829 43.9495 115.902 43.7121 115.135 43.2374C114.369 42.7626 113.762 42.0844 113.346 41.2366C112.931 40.3888 112.707 39.4053 112.707 38.3202C112.707 37.2011 112.931 36.2176 113.346 35.3698C113.794 34.522 114.369 33.8777 115.167 33.403C115.934 32.9282 116.861 32.6908 117.883 32.6908C118.937 32.6908 119.864 32.9282 120.631 33.403C121.397 33.8777 122.004 34.556 122.452 35.4038C122.867 36.2515 123.091 37.235 123.091 38.3202C123.091 39.4393 122.867 40.4227 122.452 41.2705C122.036 42.1183 121.429 42.7626 120.631 43.2713C119.832 43.7121 118.937 43.9495 117.883 43.9495ZM117.883 42.0165C118.905 42.0165 119.64 41.6774 120.151 40.9992C120.663 40.321 120.918 39.4393 120.918 38.3202C120.918 37.2011 120.663 36.3194 120.151 35.6411C119.64 34.9629 118.905 34.6238 117.883 34.6238C117.18 34.6238 116.637 34.7933 116.19 35.0985C115.742 35.4037 115.423 35.8446 115.199 36.3872C114.976 36.9298 114.88 37.5741 114.88 38.2863C114.88 39.4053 115.135 40.287 115.647 40.9653C116.126 41.6774 116.893 42.0165 117.883 42.0165ZM141.284 43.9495C140.006 43.9495 138.952 43.6782 138.121 43.1017C137.323 42.5252 136.811 41.7113 136.62 40.694L138.728 40.3549C138.856 40.8975 139.176 41.3383 139.623 41.6774C140.102 41.9826 140.677 42.1522 141.38 42.1522C142.019 42.1522 142.53 42.0165 142.882 41.7453C143.233 41.474 143.425 41.1348 143.425 40.6601C143.425 40.3888 143.361 40.1853 143.233 40.0158C143.105 39.8462 142.85 39.6766 142.434 39.541C142.019 39.4053 141.412 39.2019 140.581 38.9645C139.687 38.7271 138.952 38.4558 138.409 38.1845C137.866 37.9132 137.482 37.5741 137.259 37.235C137.035 36.862 136.907 36.4211 136.907 35.9124C136.907 35.2681 137.067 34.6916 137.418 34.2168C137.77 33.7421 138.249 33.369 138.856 33.0977C139.463 32.8265 140.198 32.6908 141.029 32.6908C141.827 32.6908 142.562 32.8265 143.201 33.0638C143.84 33.3351 144.351 33.6742 144.735 34.149C145.118 34.6238 145.374 35.1664 145.437 35.8107L143.329 36.1837C143.265 35.675 143.009 35.2681 142.626 34.9629C142.211 34.6577 141.699 34.4881 141.06 34.4881C140.453 34.4542 139.942 34.556 139.559 34.7933C139.176 35.0307 138.984 35.3359 138.984 35.7429C138.984 35.9803 139.048 36.1837 139.207 36.3533C139.367 36.5228 139.655 36.6924 140.07 36.828C140.485 36.9637 141.124 37.1672 141.955 37.3706C142.85 37.608 143.552 37.8454 144.064 38.1506C144.575 38.4219 144.958 38.761 145.182 39.134C145.405 39.5071 145.533 39.9818 145.533 40.5244C145.533 41.5757 145.15 42.4235 144.383 43C143.68 43.6443 142.626 43.9495 141.284 43.9495Z" fill="black"/>
<defs>
<linearGradient id="paint0_linear_1_3265" x1="31.5867" y1="39.5798" x2="49.9357" y2="39.5798" gradientUnits="userSpaceOnUse">
<stop stop-color="#003FFF"/>
<stop offset="0.6883" stop-color="#690AFF"/>
</linearGradient>
<linearGradient id="paint1_linear_1_3265" x1="16" y1="32.7676" x2="34.3629" y2="32.7676" gradientUnits="userSpaceOnUse">
<stop offset="0.2862" stop-color="#E843A1"/>
<stop offset="1" stop-color="#003FFF"/>
</linearGradient>
<linearGradient id="paint2_linear_1_3265" x1="16" y1="36.1667" x2="49.9509" y2="36.1667" gradientUnits="userSpaceOnUse">
<stop offset="0.16" stop-color="#E843A1"/>
<stop offset="0.84" stop-color="#690AFF"/>
</linearGradient>
</defs>
</svg>
