<svg width="189" height="72" viewBox="0 0 189 72" fill="none" xmlns="http://www.w3.org/2000/svg">
<path fill-rule="evenodd" clip-rule="evenodd" d="M57.4265 47.3498C56.874 47.4065 56.3129 47.464 55.7386 47.5347L51.1306 34.2038V48.1019C49.6906 48.2438 48.3946 48.4328 47.0026 48.6692V23.1892H50.8426L56.0746 37.6547V23.1892H60.1546V47.0147C59.2531 47.1626 58.3516 47.255 57.4265 47.3498ZM70.9585 32.5002C71.9122 32.4772 72.8438 32.4547 73.5466 32.4547V36.4256C71.7706 36.4256 69.6586 36.4256 68.1226 36.5201V42.4292C68.8705 42.3841 69.6233 42.3342 70.3794 42.2841C72.0008 42.1767 73.6379 42.0682 75.2746 42.0038V45.8328L64.0906 46.6838V23.1892H75.2746V27.1601H68.1226V32.5492C68.9334 32.5492 69.9583 32.5244 70.9585 32.5002ZM86.0746 27.2074H90.2506C90.2506 27.2074 90.2506 23.1892 90.2986 23.1892H77.8666V27.2074H82.0426V45.5492C83.3386 45.5019 84.7306 45.5019 86.0746 45.5019V27.2074ZM96.8266 32.2656H102.347V36.2365H96.8266V45.2656H92.8426V23.1892H104.123V27.1601H96.8266V32.2656ZM114.884 41.9574C113.496 41.8771 112.097 41.7961 110.699 41.7674V23.1892H106.667V45.5019C110.363 45.5965 113.963 45.7856 117.563 46.0219V42.0983C116.676 42.0612 115.783 42.0094 114.884 41.9574ZM122.333 46.3927C123.198 46.4442 124.076 46.4965 124.955 46.5892V23.1892H120.971V46.3056C121.42 46.3383 121.875 46.3654 122.333 46.3927ZM137.483 35.291L142.619 23.1892H138.155L135.323 29.8547L132.683 23.1892H128.363L133.067 35.1492L127.883 46.7783C128.459 46.8539 129.035 46.9144 129.611 46.975C130.475 47.0657 131.339 47.1565 132.203 47.2983L135.179 40.5383L138.059 47.9128C138.597 47.9956 139.129 48.0842 139.659 48.1725C140.643 48.3363 141.621 48.4991 142.619 48.6219L137.483 35.291Z" fill="#636366"/>
</svg>
