<svg width="189" height="72" viewBox="0 0 189 72" fill="none" xmlns="http://www.w3.org/2000/svg">
<path d="M70.1941 31.1003H59.0024V34.4003H66.9609C66.563 39.0503 62.6832 41.1003 59.0521 41.1003C54.3765 41.1003 50.2977 37.4003 50.2977 32.2503C50.2977 27.2003 54.1775 23.3003 59.0521 23.3003C62.8324 23.3003 65.021 25.7003 65.021 25.7003L67.3091 23.3003C67.3091 23.3003 64.3247 20.0003 58.9029 20.0003C51.9889 19.9503 46.6666 25.8003 46.6666 32.1503C46.6666 38.3503 51.6905 44.4003 59.1019 44.4003C65.6179 44.4003 70.3931 39.9503 70.3931 33.3003C70.3931 31.9003 70.1941 31.1003 70.1941 31.1003Z" fill="#636366"/>
<path fill-rule="evenodd" clip-rule="evenodd" d="M71.4376 36.4503C71.4376 32.2503 74.7205 28.6503 79.2967 28.6503C83.077 28.6503 87.1557 31.3503 87.2055 36.5503C87.2055 41.1503 83.7236 44.4003 79.3962 44.4003C74.621 44.4003 71.4376 40.7503 71.4376 36.4503ZM83.7236 36.5503C83.7236 33.6503 81.5848 31.8003 79.3464 31.8003C76.8096 31.8003 74.8697 33.8003 74.9195 36.5003C74.9195 39.3003 76.8594 41.3003 79.3464 41.3003C81.6345 41.3003 83.7236 39.4503 83.7236 36.5503Z" fill="#636366"/>
<path fill-rule="evenodd" clip-rule="evenodd" d="M88.5485 36.4503C88.5485 32.2503 91.8314 28.6503 96.4076 28.6503C100.188 28.6503 104.267 31.3503 104.316 36.5503C104.316 41.1503 100.834 44.4003 96.507 44.4003C91.7319 44.4003 88.5485 40.7503 88.5485 36.4503ZM100.834 36.5503C100.834 33.6503 98.6956 31.8003 96.4573 31.8003C93.9205 31.8003 91.9806 33.8003 92.0304 36.5003C92.0304 39.3003 93.9703 41.3003 96.4573 41.3003C98.7454 41.3003 100.834 39.4503 100.834 36.5503Z" fill="#636366"/>
<path fill-rule="evenodd" clip-rule="evenodd" d="M105.659 36.5503C105.659 32.4003 108.942 28.7003 113.17 28.7003C115.011 28.7003 116.403 29.4003 117.299 30.5003V29.1503H120.582V43.3003C120.582 48.8503 117.398 51.5003 113.22 51.5003C109.39 51.5003 107.251 49.1503 106.207 46.9003L109.241 45.6503C109.688 46.6503 110.882 48.4503 113.27 48.4503C115.757 48.4503 117.398 46.8003 117.398 44.1003V42.5503C116.453 43.6003 115.309 44.4503 113.071 44.4503C109.489 44.4503 105.659 41.2503 105.659 36.5503ZM117.647 36.6003C117.647 33.6003 115.508 31.8003 113.469 31.8003C111.28 31.8003 109.141 33.5503 109.091 36.6503C109.091 39.5003 111.181 41.3503 113.419 41.3503C115.558 41.3503 117.647 39.7003 117.647 36.6003Z" fill="#636366"/>
<path fill-rule="evenodd" clip-rule="evenodd" d="M127.993 36.5003C127.993 31.8003 131.326 28.6503 135.305 28.6503C138.389 28.6503 140.727 30.7503 141.771 33.1503L142.318 34.4503L131.823 38.8503C132.47 40.0503 133.465 41.2503 135.653 41.2503C137.593 41.2503 138.787 40.2003 139.483 39.1003L142.219 40.9503C141.025 42.5503 138.936 44.4003 135.653 44.4003C131.724 44.4003 127.993 41.4503 127.993 36.5003ZM138.339 33.4003C137.842 32.4503 136.847 31.7003 135.404 31.7003C133.166 31.7003 130.978 34.0503 131.375 36.3503L138.339 33.4003Z" fill="#636366"/>
<path d="M123.019 43.9503H126.451V20.7503H123.019V43.9503Z" fill="#636366"/>
</svg>
