<svg width="80" height="80" viewBox="0 0 80 80" fill="none" xmlns="http://www.w3.org/2000/svg">
<path d="M50.0002 75.8334H30.0002C15.3002 75.8334 10.8335 71.3667 10.8335 56.6667V23.3334C10.8335 8.63335 15.3002 4.16669 30.0002 4.16669H50.0002C64.7002 4.16669 69.1668 8.63335 69.1668 23.3334V56.6667C69.1668 71.3667 64.7002 75.8334 50.0002 75.8334ZM30.0002 9.16669C18.0668 9.16669 15.8335 11.4334 15.8335 23.3334V56.6667C15.8335 68.5667 18.0668 70.8334 30.0002 70.8334H50.0002C61.9335 70.8334 64.1668 68.5667 64.1668 56.6667V23.3334C64.1668 11.4334 61.9335 9.16669 50.0002 9.16669H30.0002Z" fill="url(#paint0_linear_261_2168)"/>
<path d="M46.6668 20.8333H33.3335C31.9668 20.8333 30.8335 19.7 30.8335 18.3333C30.8335 16.9666 31.9668 15.8333 33.3335 15.8333H46.6668C48.0335 15.8333 49.1668 16.9666 49.1668 18.3333C49.1668 19.7 48.0335 20.8333 46.6668 20.8333Z" fill="url(#paint1_linear_261_2168)"/>
<path d="M40.0002 66.2C35.7668 66.2 32.3335 62.7667 32.3335 58.5334C32.3335 54.3 35.7668 50.8667 40.0002 50.8667C44.2335 50.8667 47.6668 54.3 47.6668 58.5334C47.6668 62.7667 44.2335 66.2 40.0002 66.2ZM40.0002 55.8334C38.5335 55.8334 37.3335 57.0334 37.3335 58.5C37.3335 59.9667 38.5335 61.1667 40.0002 61.1667C41.4668 61.1667 42.6668 59.9667 42.6668 58.5C42.6668 57.0334 41.4668 55.8334 40.0002 55.8334Z" fill="url(#paint2_linear_261_2168)"/>
<defs>
<linearGradient id="paint0_linear_261_2168" x1="26.2049" y1="16.8577" x2="82.063" y2="45.1168" gradientUnits="userSpaceOnUse">
<stop stop-color="#0049FC"/>
<stop offset="1" stop-color="#00CBFE"/>
</linearGradient>
<linearGradient id="paint1_linear_261_2168" x1="35.6645" y1="16.7187" x2="39.2243" y2="24.8314" gradientUnits="userSpaceOnUse">
<stop stop-color="#0049FC"/>
<stop offset="1" stop-color="#00CBFE"/>
</linearGradient>
<linearGradient id="paint2_linear_261_2168" x1="36.374" y1="53.582" x2="49.6759" y2="61.8497" gradientUnits="userSpaceOnUse">
<stop stop-color="#0049FC"/>
<stop offset="1" stop-color="#00CBFE"/>
</linearGradient>
</defs>
</svg>
