<svg width="41" height="40" viewBox="0 0 41 40" fill="none" xmlns="http://www.w3.org/2000/svg">
<path d="M25.6668 37.9166H15.6668C8.31683 37.9166 6.0835 35.6833 6.0835 28.3333V11.6666C6.0835 4.31659 8.31683 2.08325 15.6668 2.08325H25.6668C33.0168 2.08325 35.2502 4.31659 35.2502 11.6666V28.3333C35.2502 35.6833 33.0168 37.9166 25.6668 37.9166ZM15.6668 4.58325C9.70016 4.58325 8.5835 5.71659 8.5835 11.6666V28.3333C8.5835 34.2833 9.70016 35.4166 15.6668 35.4166H25.6668C31.6335 35.4166 32.7502 34.2833 32.7502 28.3333V11.6666C32.7502 5.71659 31.6335 4.58325 25.6668 4.58325H15.6668Z" fill="#1E1983"/>
<path d="M24.0002 10.4167H17.3335C16.6502 10.4167 16.0835 9.85008 16.0835 9.16675C16.0835 8.48341 16.6502 7.91675 17.3335 7.91675H24.0002C24.6835 7.91675 25.2502 8.48341 25.2502 9.16675C25.2502 9.85008 24.6835 10.4167 24.0002 10.4167Z" fill="#1E1983"/>
<path d="M20.6668 33.1C18.5502 33.1 16.8335 31.3833 16.8335 29.2667C16.8335 27.15 18.5502 25.4333 20.6668 25.4333C22.7835 25.4333 24.5002 27.15 24.5002 29.2667C24.5002 31.3833 22.7835 33.1 20.6668 33.1ZM20.6668 27.9167C19.9335 27.9167 19.3335 28.5167 19.3335 29.25C19.3335 29.9833 19.9335 30.5834 20.6668 30.5834C21.4002 30.5834 22.0002 29.9833 22.0002 29.25C22.0002 28.5167 21.4002 27.9167 20.6668 27.9167Z" fill="#1E1983"/>
</svg>
