<svg width="41" height="40" viewBox="0 0 41 40" fill="none" xmlns="http://www.w3.org/2000/svg">
<path d="M15.5993 19.3666C15.5493 19.3666 15.516 19.3666 15.466 19.3666C15.3826 19.3499 15.266 19.3499 15.166 19.3666C10.3326 19.2166 6.68262 15.4166 6.68262 10.7333C6.68262 5.96659 10.566 2.08325 15.3326 2.08325C20.0993 2.08325 23.9826 5.96659 23.9826 10.7333C23.966 15.4166 20.2993 19.2166 15.6493 19.3666C15.6326 19.3666 15.616 19.3666 15.5993 19.3666ZM15.3326 4.58325C11.9493 4.58325 9.18262 7.34992 9.18262 10.7333C9.18262 14.0666 11.7826 16.7499 15.0993 16.8666C15.1993 16.8499 15.416 16.8499 15.6326 16.8666C18.8993 16.7166 21.466 14.0333 21.4826 10.7333C21.4826 7.34992 18.716 4.58325 15.3326 4.58325Z" fill="#1E1983"/>
<path d="M27.8992 19.5834C27.8492 19.5834 27.7992 19.5834 27.7492 19.5667C27.0659 19.6334 26.3659 19.1501 26.2992 18.4667C26.2325 17.7834 26.6492 17.1667 27.3325 17.0834C27.5325 17.0667 27.7492 17.0667 27.9325 17.0667C30.3659 16.9334 32.2659 14.9334 32.2659 12.4834C32.2659 9.95008 30.2159 7.90008 27.6825 7.90008C26.9992 7.91675 26.4325 7.35008 26.4325 6.66675C26.4325 5.98341 26.9992 5.41675 27.6825 5.41675C31.5825 5.41675 34.7659 8.60008 34.7659 12.5001C34.7659 16.3334 31.7659 19.4334 27.9492 19.5834C27.9325 19.5834 27.9159 19.5834 27.8992 19.5834Z" fill="#1E1983"/>
<path d="M15.6159 37.5834C12.3493 37.5834 9.06593 36.7501 6.5826 35.0834C4.26593 33.5501 2.99927 31.4501 2.99927 29.1667C2.99927 26.8834 4.26593 24.7667 6.5826 23.2167C11.5826 19.9001 19.6826 19.9001 24.6493 23.2167C26.9493 24.7501 28.2326 26.8501 28.2326 29.1334C28.2326 31.4167 26.9659 33.5334 24.6493 35.0834C22.1493 36.7501 18.8826 37.5834 15.6159 37.5834ZM7.96593 25.3167C6.36593 26.3834 5.49927 27.7501 5.49927 29.1834C5.49927 30.6001 6.3826 31.9667 7.96593 33.0167C12.1159 35.8001 19.1159 35.8001 23.2659 33.0167C24.8659 31.9501 25.7326 30.5834 25.7326 29.1501C25.7326 27.7334 24.8493 26.3667 23.2659 25.3167C19.1159 22.5501 12.1159 22.5501 7.96593 25.3167Z" fill="#1E1983"/>
<path d="M30.8992 34.5834C30.3159 34.5834 29.7992 34.1834 29.6825 33.5834C29.5492 32.9 29.9825 32.25 30.6492 32.1C31.6992 31.8834 32.6659 31.4667 33.4159 30.8834C34.3659 30.1667 34.8825 29.2667 34.8825 28.3167C34.8825 27.3667 34.3659 26.4667 33.4325 25.7667C32.6992 25.2 31.7825 24.8 30.6992 24.55C30.0325 24.4 29.5992 23.7334 29.7492 23.05C29.8992 22.3834 30.5659 21.95 31.2492 22.1C32.6825 22.4167 33.9325 22.9834 34.9492 23.7667C36.4992 24.9334 37.3825 26.5834 37.3825 28.3167C37.3825 30.05 36.4825 31.7 34.9325 32.8834C33.8992 33.6834 32.5992 34.2667 31.1659 34.55C31.0659 34.5834 30.9825 34.5834 30.8992 34.5834Z" fill="#1E1983"/>
</svg>
