<svg width="96" height="30" viewBox="0 0 96 30" fill="none" xmlns="http://www.w3.org/2000/svg">
<path fill-rule="evenodd" clip-rule="evenodd" d="M27.3261 21.1429C27.756 22.2381 27.8515 23.2857 27.7082 24.3333C27.3739 26.5238 25.9411 28.4286 23.8396 29.2857C23.0754 29.619 22.2635 29.7619 21.4038 29.7619C21.1649 29.7619 20.8784 29.7619 20.6396 29.7143C19.6366 29.619 18.6336 29.2857 17.6306 28.7143C16.4366 28.0476 15.2426 27.0476 13.9052 25.619C12.5679 27.0476 11.4217 28.0476 10.1799 28.7143C9.17689 29.2857 8.17391 29.5714 7.17092 29.7143C7.05152 29.7143 6.92017 29.7262 6.78883 29.7381C6.65749 29.75 6.52614 29.7619 6.40674 29.7619C5.54704 29.7619 4.7351 29.619 3.97092 29.2857C1.91719 28.4286 0.38883 26.5714 0.054502 24.3333C-0.0887816 23.2381 0.054502 22.1905 0.436592 21.1429C0.579872 20.7143 0.723153 20.381 0.866433 20.0476C1.10524 19.5238 1.34405 19 1.5351 18.5238L1.58286 18.4762C3.68435 14 5.88137 9.47619 8.17391 5L8.26943 4.80952C8.50823 4.38095 8.74704 3.90476 8.98585 3.42857C9.05013 3.32786 9.1144 3.22539 9.17936 3.12184C9.45222 2.68685 9.7372 2.23256 10.0844 1.80952C11.0873 0.666667 12.4247 0 13.9052 0C15.3381 0 16.7232 0.666667 17.6784 1.85714C18.156 2.38095 18.4903 2.95238 18.7769 3.47619C19.0157 3.95238 19.2545 4.42857 19.4933 4.85714L19.5888 5.04762C21.9291 9.52381 24.1261 14.0476 26.1799 18.5238H26.2276C26.4187 19 26.6575 19.5237 26.8962 20.0475C27.0395 20.3808 27.1829 20.7619 27.3261 21.1429ZM50.3948 7.47619C50.3948 8.57143 49.5351 9.42857 48.4366 9.42857C47.3381 9.42857 46.4784 8.57143 46.4784 7.47619C46.4784 6.38095 47.3381 5.52381 48.4366 5.52381C49.5829 5.57143 50.3948 6.42857 50.3948 7.47619ZM42.4187 11.381V11.8571C42.4187 11.8571 41.5112 10.6667 39.5052 10.6667C36.2575 10.6667 33.7261 13.1429 33.7261 16.5714C33.7261 19.9524 36.2575 22.4762 39.5052 22.4762C41.5112 22.4762 42.4187 21.2381 42.4187 21.2381V21.7619C42.4187 22 42.6097 22.1905 42.8485 22.1905H45.2844V10.9524H42.8485C42.562 10.9524 42.4187 11.1429 42.4187 11.381ZM39.9829 19.7619C41.0814 19.7619 41.9888 19.1905 42.4187 18.5238V14.5238C41.9888 13.9048 41.0336 13.2857 39.9829 13.2857C38.0724 13.2857 36.5918 14.4762 36.5918 16.5238C36.5918 18.5714 38.0724 19.7619 39.9829 19.7619ZM49.8694 10.9524V22.1429H47.0038V10.9524H49.8694ZM86.9321 11.8571C86.9321 11.8571 87.8873 10.6667 89.8456 10.6667C93.0933 10.6667 95.6247 13.1429 95.6247 16.5238C95.6247 19.9048 93.0933 22.4286 89.8456 22.4286C87.8396 22.4286 86.9321 21.1905 86.9321 21.1905V21.7143C86.9321 21.9524 86.7411 22.1429 86.5023 22.1429H84.0664V5.57143H86.9321V11.8571ZM89.3679 19.7143C88.2694 19.7143 87.4097 19.1429 86.9321 18.4762V14.4762C87.362 13.8571 88.3172 13.2381 89.3679 13.2381C91.2784 13.2381 92.759 14.4286 92.759 16.4762C92.759 18.5238 91.2784 19.7143 89.3679 19.7143ZM82.5858 22.1905V15.5238C82.5858 13.619 82.2038 12.5714 81.2485 11.7619C80.3888 11.0476 79.3381 10.6667 78.0963 10.6667C76.9978 10.6667 75.8993 11 75.0396 11.8571V11.381C75.0396 11.1429 74.8485 10.9524 74.6097 10.9524H72.3172V22.1905H75.1829V14.381C75.756 13.7143 76.6635 13.2857 77.5232 13.2857C79.0993 13.2857 79.7202 14 79.7202 15.8571V22.1905H82.5858ZM65.3441 10.6667C63.3858 10.6667 62.4306 11.8571 62.4306 11.8571V5.57143H59.5649V22.1429H62.0008C62.2396 22.1429 62.4306 21.9524 62.4306 21.7143V21.1905C62.4306 21.1905 63.3381 22.4286 65.3441 22.4286C68.5918 22.4286 71.1232 19.9048 71.1232 16.5238C71.1709 13.1429 68.6396 10.6667 65.3441 10.6667ZM62.4306 18.4762C62.9082 19.1429 63.7679 19.7143 64.8664 19.7143C66.7769 19.7143 68.2575 18.5238 68.2575 16.4762C68.2575 14.4286 66.7769 13.2381 64.8664 13.2381C63.8157 13.2381 62.8605 13.8571 62.4306 14.4762V18.4762ZM57.1291 10.6667C57.9888 10.6667 58.4664 10.8095 58.4664 10.8095V13.4762C58.4664 13.4762 56.0784 12.6667 54.5978 14.381V22.1905H51.7321V10.9524H54.1679C54.4067 10.9524 54.5978 11.1429 54.5978 11.381V11.8571C55.0754 11.2381 56.2217 10.6667 57.1291 10.6667ZM13.8575 22.6667C12.2336 20.619 11.1829 18.7143 10.8485 17.1429C10.7052 16.4762 10.6575 15.8571 10.753 15.3333C10.8008 14.8571 10.9918 14.4286 11.2306 14.0952C11.8038 13.2857 12.759 12.7619 13.8575 12.7619C14.956 12.7619 15.959 13.2381 16.4844 14.0952C16.7232 14.4762 16.9142 14.8571 16.962 15.3333C17.0575 15.8571 17.0097 16.4762 16.8664 17.1429C16.5321 18.7143 15.4814 20.619 13.8575 22.6667ZM23.0754 27.5714C24.556 27 25.6067 25.6667 25.7978 24.0952C25.8933 23.2857 25.7978 22.5714 25.6545 21.8095C25.6028 21.6548 25.5371 21.5002 25.4649 21.3304C25.4038 21.1865 25.3381 21.0319 25.2724 20.8571C25.153 20.619 25.0455 20.369 24.9381 20.119C24.8306 19.869 24.7232 19.619 24.6038 19.381V19.3333C22.55 14.9048 20.353 10.381 18.0605 5.95238L17.965 5.7619C17.7261 5.28571 17.4873 4.80952 17.2485 4.38095C17.0097 3.90476 16.7232 3.42857 16.3888 3.04762C15.7679 2.33333 14.9082 1.95238 14.0008 1.95238C13.0933 1.95238 12.2336 2.33333 11.6127 3.04762C11.2784 3.47619 10.9918 3.90476 10.753 4.38095C10.5142 4.85714 10.2754 5.33333 10.0366 5.7619L9.94107 5.95238C7.60077 10.381 5.40376 14.9048 3.35002 19.3333L3.30226 19.381C3.06346 19.8571 2.82465 20.381 2.63361 20.8571C2.49033 21.1905 2.34704 21.5238 2.25152 21.8095C1.91719 22.6667 1.86943 23.381 1.96495 24.1429C2.15599 25.6667 3.20674 27 4.68734 27.619C5.35599 27.8571 6.12017 28 6.93211 27.9048C7.69629 27.8095 8.46047 27.5714 9.22465 27.1429C10.2754 26.5238 11.3739 25.619 12.6157 24.2381C10.6575 21.8095 9.4157 19.5714 8.98585 17.619C8.74704 16.7143 8.69928 15.8571 8.84256 15.0952C8.98585 14.3333 9.22465 13.6667 9.6545 13.0476C10.562 11.7619 12.1381 10.9524 13.8575 10.9524C15.5769 10.9524 17.153 11.7143 18.0605 13.0476C18.4903 13.6667 18.7291 14.3333 18.8724 15.0952C18.9679 15.8571 18.9202 16.7143 18.7291 17.619C18.2515 19.5714 17.0575 21.7619 15.0993 24.1905C16.3411 25.5714 17.3918 26.4762 18.4903 27.0952C19.3023 27.5238 20.0187 27.7619 20.7829 27.8571C21.5948 27.9524 22.359 27.8571 23.0754 27.5714Z" fill="#636366"/>
</svg>
