<svg width="96" height="26" viewBox="0 0 96 26" fill="none" xmlns="http://www.w3.org/2000/svg">
<path fill-rule="evenodd" clip-rule="evenodd" d="M10.4265 24.3497C9.87409 24.4063 9.31296 24.4638 8.73869 24.5345L4.13069 11.2036V25.1018C2.69069 25.2436 1.39469 25.4327 0.00268555 25.6691V0.189087H3.84269L9.07469 14.6545V0.189087H13.1547V24.0145C12.2532 24.1625 11.3516 24.2549 10.4265 24.3497ZM23.9585 9.50012C24.9123 9.47707 25.8439 9.45454 26.5467 9.45454V13.4255C24.7707 13.4255 22.6587 13.4255 21.1227 13.52V19.4291C21.8706 19.384 22.6234 19.3341 23.3794 19.284C25.0009 19.1766 26.638 19.0681 28.2747 19.0036V22.8327L17.0907 23.6836V0.189087H28.2747V4.16H21.1227V9.54909C21.9335 9.54909 22.9584 9.52431 23.9585 9.50012ZM39.0747 4.20727H43.2507C43.2507 4.20727 43.2507 0.189087 43.2987 0.189087H30.8667V4.20727H35.0427V22.5491C36.3387 22.5018 37.7307 22.5018 39.0747 22.5018V4.20727ZM49.8267 9.26545H55.3467V13.2364H49.8267V22.2655H45.8427V0.189087H57.1227V4.16H49.8267V9.26545ZM67.8845 18.9573C66.4964 18.8769 65.0975 18.796 63.6987 18.7673V0.189087H59.6667V22.5018C63.3627 22.5964 66.9627 22.7854 70.5627 23.0218V19.0982C69.6764 19.061 68.7827 19.0093 67.8845 18.9573ZM75.3332 23.3926C76.1981 23.4441 77.0764 23.4964 77.9547 23.5891V0.189087H73.9707V23.3055C74.4197 23.3382 74.8746 23.3653 75.3332 23.3926ZM90.4827 12.2909L95.6187 0.189087H91.1547L88.3227 6.85454L85.6827 0.189087H81.3627L86.0667 12.1491L80.8827 23.7782C81.4587 23.8538 82.0347 23.9143 82.6107 23.9748C83.4747 24.0656 84.3387 24.1564 85.2027 24.2982L88.1787 17.5382L91.0587 24.9127C91.5966 24.9955 92.1286 25.0841 92.6589 25.1724C93.6428 25.3362 94.6206 25.4989 95.6187 25.6218L90.4827 12.2909Z" fill="#636366"/>
</svg>
