<svg width="20" height="20" viewBox="0 0 20 20" fill="none" xmlns="http://www.w3.org/2000/svg">
<path fill-rule="evenodd" clip-rule="evenodd" d="M13 20H7C2 20 0 18 0 13V7C0 2 2 0 7 0H13C18 0 20 2 20 7V13C20 18 18 20 13 20ZM3.78906 5.42969C3.78906 4.48045 4.55857 3.71094 5.50781 3.71094C6.45705 3.71094 7.22656 4.48045 7.22656 5.42969C7.22656 6.37893 6.45705 7.14844 5.50781 7.14844C4.55857 7.14844 3.78906 6.37893 3.78906 5.42969ZM4.17969 8.28125C4.17969 8.06551 4.35458 7.89062 4.57031 7.89062H6.44531C6.66105 7.89062 6.83594 8.06551 6.83594 8.28125V15.8594C6.83594 16.0751 6.66105 16.25 6.44531 16.25H4.57031C4.35458 16.25 4.17969 16.0751 4.17969 15.8594V8.28125ZM10.2734 7.89062H8.39844C8.1827 7.89062 8.00781 8.06551 8.00781 8.28125V15.8594C8.00781 16.0751 8.1827 16.25 8.39844 16.25H10.2734C10.4892 16.25 10.6641 16.0751 10.6641 15.8594V11.875C10.8337 9.82034 12.2041 10.0139 12.3697 10.0373L12.3828 10.0391C13.2617 10.1316 13.5156 11.3086 13.5156 11.7969V15.8594C13.5156 16.0751 13.6905 16.25 13.9062 16.25H15.7812C15.997 16.25 16.1719 16.0751 16.1719 15.8594V10.8789C16.1719 10.0195 15.8008 7.7539 13.0469 7.7539C11.5625 7.7539 11.0352 8.33984 10.6641 8.88672V8.28125C10.6641 8.06551 10.4892 7.89062 10.2734 7.89062Z" fill="#0049FC"/>
</svg>
