<svg width="80" height="80" viewBox="0 0 80 80" fill="none" xmlns="http://www.w3.org/2000/svg">
<path d="M40 75.8333C22.5334 75.8333 8.33337 61.6333 8.33337 44.1667C8.33337 26.7 22.5334 12.5 40 12.5C57.4667 12.5 71.6667 26.7 71.6667 44.1667C71.6667 61.6333 57.4667 75.8333 40 75.8333ZM40 17.5C25.3 17.5 13.3334 29.4667 13.3334 44.1667C13.3334 58.8667 25.3 70.8333 40 70.8333C54.7 70.8333 66.6667 58.8667 66.6667 44.1667C66.6667 29.4667 54.7 17.5 40 17.5Z" fill="url(#paint0_linear_308_3305)"/>
<path d="M40 45.8334C38.6333 45.8334 37.5 44.7 37.5 43.3334V26.6667C37.5 25.3 38.6333 24.1667 40 24.1667C41.3667 24.1667 42.5 25.3 42.5 26.6667V43.3334C42.5 44.7 41.3667 45.8334 40 45.8334Z" fill="url(#paint1_linear_308_3305)"/>
<path d="M50 9.16669H30C28.6333 9.16669 27.5 8.03335 27.5 6.66669C27.5 5.30002 28.6333 4.16669 30 4.16669H50C51.3667 4.16669 52.5 5.30002 52.5 6.66669C52.5 8.03335 51.3667 9.16669 50 9.16669Z" fill="url(#paint2_linear_308_3305)"/>
<defs>
<linearGradient id="paint0_linear_308_3305" x1="25.0223" y1="23.7153" x2="79.9648" y2="57.8646" gradientUnits="userSpaceOnUse">
<stop stop-color="#0049FC"/>
<stop offset="1" stop-color="#00CBFE"/>
</linearGradient>
<linearGradient id="paint1_linear_308_3305" x1="38.8176" y1="28.0035" x2="44.7096" y2="28.8486" gradientUnits="userSpaceOnUse">
<stop stop-color="#0049FC"/>
<stop offset="1" stop-color="#00CBFE"/>
</linearGradient>
<linearGradient id="paint2_linear_308_3305" x1="34.0878" y1="5.0521" x2="36.9088" y2="13.819" gradientUnits="userSpaceOnUse">
<stop stop-color="#0049FC"/>
<stop offset="1" stop-color="#00CBFE"/>
</linearGradient>
</defs>
</svg>
