<svg width="97" height="32" viewBox="0 0 97 32" fill="none" xmlns="http://www.w3.org/2000/svg">
<path d="M24.1941 11.1003H13.0024V14.4003H20.9609C20.563 19.0503 16.6832 21.1003 13.0521 21.1003C8.37647 21.1003 4.29771 17.4003 4.29771 12.2503C4.29771 7.20032 8.17751 3.30032 13.0521 3.30032C16.8324 3.30032 19.021 5.70032 19.021 5.70032L21.3091 3.30032C21.3091 3.30032 18.3247 0.000318209 12.9029 0.000318209C5.98891 -0.0496818 0.666626 5.80032 0.666626 12.1503C0.666626 18.3503 5.69046 24.4003 13.1019 24.4003C19.6179 24.4003 24.3931 19.9503 24.3931 13.3003C24.3931 11.9003 24.1941 11.1003 24.1941 11.1003Z" fill="#636366"/>
<path fill-rule="evenodd" clip-rule="evenodd" d="M25.4376 16.4503C25.4376 12.2503 28.7205 8.65032 33.2967 8.65032C37.077 8.65032 41.1557 11.3503 41.2055 16.5503C41.2055 21.1503 37.7236 24.4003 33.3962 24.4003C28.621 24.4003 25.4376 20.7503 25.4376 16.4503ZM37.7236 16.5503C37.7236 13.6503 35.5848 11.8003 33.3464 11.8003C30.8096 11.8003 28.8697 13.8003 28.9195 16.5003C28.9195 19.3003 30.8594 21.3003 33.3464 21.3003C35.6345 21.3003 37.7236 19.4503 37.7236 16.5503Z" fill="#636366"/>
<path fill-rule="evenodd" clip-rule="evenodd" d="M42.5485 16.4503C42.5485 12.2503 45.8314 8.65032 50.4076 8.65032C54.1879 8.65032 58.2666 11.3503 58.3164 16.5503C58.3164 21.1503 54.8345 24.4003 50.507 24.4003C45.7319 24.4003 42.5485 20.7503 42.5485 16.4503ZM54.8345 16.5503C54.8345 13.6503 52.6956 11.8003 50.4573 11.8003C47.9205 11.8003 45.9806 13.8003 46.0304 16.5003C46.0304 19.3003 47.9703 21.3003 50.4573 21.3003C52.7454 21.3003 54.8345 19.4503 54.8345 16.5503Z" fill="#636366"/>
<path fill-rule="evenodd" clip-rule="evenodd" d="M59.6594 16.5503C59.6594 12.4003 62.9423 8.70032 67.1702 8.70032C69.0107 8.70032 70.4034 9.40032 71.2988 10.5003V9.15032H74.5816V23.3003C74.5816 28.8503 71.3982 31.5003 67.22 31.5003C63.3899 31.5003 61.2511 29.1503 60.2065 26.9003L63.2407 25.6503C63.6884 26.6503 64.8822 28.4503 67.2697 28.4503C69.7568 28.4503 71.3982 26.8003 71.3982 24.1003V22.5503C70.4532 23.6003 69.3091 24.4503 67.0708 24.4503C63.4894 24.4503 59.6594 21.2503 59.6594 16.5503ZM71.6469 16.6003C71.6469 13.6003 69.5081 11.8003 67.4687 11.8003C65.2801 11.8003 63.1412 13.5503 63.0915 16.6503C63.0915 19.5003 65.1806 21.3503 67.419 21.3503C69.5578 21.3503 71.6469 19.7003 71.6469 16.6003Z" fill="#636366"/>
<path fill-rule="evenodd" clip-rule="evenodd" d="M81.993 16.5003C81.993 11.8003 85.3257 8.65032 89.305 8.65032C92.3889 8.65032 94.7267 10.7503 95.7713 13.1503L96.3184 14.4503L85.8231 18.8503C86.4697 20.0503 87.4646 21.2503 89.6532 21.2503C91.593 21.2503 92.7868 20.2003 93.4832 19.1003L96.219 20.9503C95.0252 22.5503 92.9361 24.4003 89.6532 24.4003C85.7236 24.4003 81.993 21.4503 81.993 16.5003ZM92.3392 13.4003C91.8418 12.4503 90.8469 11.7003 89.4044 11.7003C87.1661 11.7003 84.9775 14.0503 85.3754 16.3503L92.3392 13.4003Z" fill="#636366"/>
<path d="M77.019 23.9503H80.4511V0.750318H77.019V23.9503Z" fill="#636366"/>
</svg>
