<svg width="110" height="32" viewBox="0 0 110 32" fill="none" xmlns="http://www.w3.org/2000/svg">
<path d="M19.6908 2.76787C19.253 1.33339 17.7206 0.560976 16.2978 1.00236C14.8749 1.44373 14.1087 2.98856 14.5465 4.42305L21.5515 26.161C22.044 27.4851 23.4669 28.2575 24.8351 27.8713C26.258 27.4299 27.1336 25.9403 26.6958 24.5058C26.6958 24.4506 19.6908 2.76787 19.6908 2.76787Z" fill="#636366"/>
<path d="M8.85498 6.35408C8.41717 4.9196 6.88483 4.14718 5.46194 4.58856C4.03906 5.02994 3.27289 6.57477 3.7107 8.00925L10.7157 29.7472C11.2082 31.0713 12.6311 31.8437 13.9993 31.4575C15.4221 31.0161 16.2978 29.5265 15.86 28.092C15.86 28.0368 8.85498 6.35408 8.85498 6.35408Z" fill="#636366"/>
<path d="M28.5565 20.8093C29.9794 20.3679 30.7455 18.823 30.3077 17.3886C29.8699 15.9541 28.3376 15.1817 26.9147 15.623L5.29776 22.6299C3.98433 23.1265 3.21816 24.561 3.60125 25.9403C4.03906 27.3748 5.51667 28.2575 6.93955 27.8161C7.04901 27.8161 28.5565 20.8093 28.5565 20.8093Z" fill="#636366"/>
<path d="M9.78533 26.9334C11.2082 26.492 13.0142 25.8851 14.9296 25.223C14.4918 23.7886 13.8898 21.9679 13.2331 20.0368L8.08881 21.7472L9.78533 26.9334Z" fill="#636366"/>
<path d="M20.6759 23.3472C22.646 22.6851 24.452 22.1334 25.8202 21.6368C25.3823 20.2024 24.7803 18.3817 24.1236 16.4506L18.9794 18.161L20.6759 23.3472Z" fill="#636366"/>
<path d="M24.9993 9.82994C26.4221 9.38856 27.1883 7.84373 26.7505 6.40925C26.3127 4.97477 24.7804 4.20236 23.3575 4.64373L1.79528 11.7058C0.481843 12.2024 -0.284326 13.6368 0.0987584 15.0161C0.536569 16.5058 2.01418 17.3886 3.43707 16.892C3.49179 16.892 24.9993 9.82994 24.9993 9.82994Z" fill="#636366"/>
<path d="M6.28284 15.9541C7.70572 15.5127 9.51169 14.9058 11.4271 14.2437C10.7704 12.2575 10.2231 10.4368 9.7306 9.05753L4.58632 10.7679L6.28284 15.9541Z" fill="#636366"/>
<path d="M17.1187 12.423C19.0888 11.761 20.8948 11.2093 22.2629 10.7127C21.6062 8.72649 21.059 6.9058 20.5664 5.52649L15.4221 7.23684L17.1187 12.423Z" fill="#636366"/>
<path d="M50.3923 8.5058C51.3226 8.94718 51.4321 9.22305 50.6659 10.6575C49.8998 12.1472 49.7356 12.2024 48.7505 11.8161C47.5465 11.3196 46.0689 10.9334 45.0838 10.9334C43.4968 10.9334 42.457 11.4851 42.457 12.3679C42.457 15.2368 51.5963 13.692 51.5963 19.8713C51.5963 22.961 48.9694 25.0024 45.0291 25.0024C42.9495 25.0024 40.3774 24.2851 38.6261 23.4024C37.7505 22.961 37.6958 22.6851 38.4619 21.1955C39.1187 19.9265 39.3376 19.761 40.2679 20.1472C41.8003 20.8093 43.6609 21.3058 44.9744 21.3058C46.452 21.3058 47.3823 20.6989 47.3823 19.8161C47.3823 17.0024 38.0789 18.3265 38.0789 12.3679C38.0789 9.22304 40.7057 7.07132 44.5913 7.07132C46.452 7.23684 48.8052 7.78856 50.3923 8.5058Z" fill="#636366"/>
<path d="M57.7803 1.22304V24.1748C57.7803 24.5058 57.3973 24.892 56.9047 24.892H54.4968C53.9495 24.892 53.6211 24.5058 53.6211 24.1748V1.22304C53.6211 0.0644243 53.9495 0.00925184 55.7007 0.00925184C57.6709 -0.0459206 57.7803 0.119597 57.7803 1.22304Z" fill="#636366"/>
<path fill-rule="evenodd" clip-rule="evenodd" d="M74.7455 23.9541V14.0782C74.7455 9.77477 71.845 7.23684 67.248 7.23684C65.1684 7.23684 62.8699 7.89891 61.2281 9.00235C60.3525 9.55408 60.3525 9.82994 61.2281 11.2093C62.1585 12.5886 62.3226 12.6437 63.1983 12.1472C64.2928 11.4851 65.6609 11.0437 66.8102 11.0437C69.2182 11.0437 70.641 12.1472 70.641 13.9679V15.1265C69.4918 14.6299 68.0689 14.3541 66.5366 14.3541C62.4321 14.3541 59.7505 16.561 59.7505 19.8713C59.7505 22.961 62.1585 25.0575 65.7157 25.0575C67.5764 25.0575 69.4371 24.2851 70.6958 22.8506L70.641 23.8989C70.5863 24.4506 70.9694 24.8368 71.5167 24.8368H73.8699C74.3624 24.8368 74.7455 24.5058 74.7455 23.9541ZM66.2082 21.7472C64.7306 21.7472 63.7455 20.9748 63.7455 19.8161C63.7455 18.3817 65.2231 17.2782 67.4122 17.2782C68.452 17.2782 69.656 17.4437 70.5863 17.8299V19.3748C69.656 20.8644 68.0142 21.7472 66.2082 21.7472Z" fill="#636366"/>
<path d="M90.9993 8.56098C91.8749 9.05753 91.8749 9.33339 90.9445 10.823C90.0689 12.2024 89.9047 12.3127 88.9196 11.8161C88.2082 11.4299 87.0042 11.0989 86.0739 11.0989C83.0639 11.0989 81.0938 13.0851 81.0938 16.1196C81.0938 19.2644 83.0639 21.361 86.0739 21.361C87.1137 21.361 88.4271 20.9748 89.248 20.4782C90.1236 19.9817 90.2878 19.9817 91.2182 21.361C92.039 22.6299 92.039 22.9058 91.2729 23.4575C89.9594 24.3955 87.8251 25.1127 85.9644 25.1127C80.4371 25.1127 76.7157 21.5265 76.7157 16.1748C76.7157 10.823 80.4371 7.29201 86.0191 7.29201C87.7704 7.23684 89.7405 7.78856 90.9993 8.56098Z" fill="#636366"/>
<path d="M109.114 22.6851C109.825 23.5679 109.551 23.8989 107.8 24.5058C106.049 25.1679 105.775 25.1127 105.173 24.2851L100.193 17.6093L97.9495 19.761V24.1196C97.9495 24.4506 97.5664 24.8368 97.0739 24.8368H94.6659C94.1187 24.8368 93.7903 24.4506 93.7903 24.1196V1.22304C93.7903 0.0644243 94.1187 0.00925183 95.8699 0.00925183C97.8948 0.00925183 97.9495 0.174769 97.9495 1.22304V14.2437L104.736 7.67822C105.502 6.96098 105.885 7.01615 107.253 7.89891C108.731 8.83684 108.84 9.1127 108.129 9.82994L103.094 14.7955L109.114 22.6851Z" fill="#636366"/>
</svg>
