<svg width="54" height="72" viewBox="0 0 54 72" fill="none" xmlns="http://www.w3.org/2000/svg">
<path d="M20.3 71.8334C19.6333 71.8334 19.1 71.7 18.7 71.5333C17.3666 71.0333 15.1 69.4 15.1 64.2333V42.7334H7.29998C2.83331 42.7334 1.23331 40.6334 0.666641 39.4C0.0999744 38.1334 -0.400026 35.5667 2.53331 32.2L27.7666 3.53335C31.1666 -0.333312 33.9333 -0.0666455 35.2666 0.433354C36.6 0.933354 38.8666 2.56669 38.8666 7.73335V29.2334H46.6666C51.1333 29.2334 52.7333 31.3334 53.3 32.5667C53.8666 33.8334 54.3666 36.4 51.4333 39.7667L26.2 68.4333C23.8333 71.1333 21.7666 71.8334 20.3 71.8334ZM33.4333 5.13335C33.3333 5.26669 32.6333 5.60002 31.5333 6.86669L6.29997 35.5334C5.36664 36.6 5.23331 37.2667 5.23331 37.4C5.29997 37.4334 5.89998 37.7667 7.29998 37.7667H17.6C18.9666 37.7667 20.1 38.9 20.1 40.2667V64.2667C20.1 65.9333 20.4 66.6667 20.5333 66.8667C20.6333 66.7334 21.3333 66.4 22.4333 65.1333L47.6666 36.4667C48.6 35.4 48.7333 34.7334 48.7333 34.6C48.6666 34.5667 48.0666 34.2334 46.6666 34.2334H36.3666C35 34.2334 33.8666 33.1 33.8666 31.7334V7.73335C33.9 6.06669 33.5666 5.36669 33.4333 5.13335Z" fill="url(#paint0_linear_308_3296)"/>
<defs>
<linearGradient id="paint0_linear_308_3296" x1="14.3313" y1="12.8453" x2="67.2783" y2="37.4067" gradientUnits="userSpaceOnUse">
<stop stop-color="#0049FC"/>
<stop offset="1" stop-color="#00CBFE"/>
</linearGradient>
</defs>
</svg>
