<svg width="97" height="25" viewBox="0 0 97 25" fill="none" xmlns="http://www.w3.org/2000/svg">
<path fill-rule="evenodd" clip-rule="evenodd" d="M14.2054 1.83962C14.2054 2.83019 13.3414 3.67925 12.3334 3.67925C11.3254 3.67925 10.4614 2.83019 10.4614 1.83962C10.4614 0.849057 11.3254 0 12.3334 0C13.3414 0 14.2054 0.849057 14.2054 1.83962ZM12.3334 5.18868C11.2294 5.18868 10.3654 6.03774 10.3654 7.12264C10.3654 8.20755 11.2294 9.0566 12.3334 9.0566C13.4374 9.0566 14.3014 8.20755 14.3014 7.12264C14.3014 5.99057 13.4374 5.18868 12.3334 5.18868ZM10.3174 12.3113C10.3174 11.2264 11.2294 10.3302 12.3334 10.3302C13.4374 10.3302 14.3974 11.2264 14.3494 12.3113C14.3494 13.3962 13.4374 14.2925 12.3334 14.2925C11.2294 14.2925 10.3174 13.3962 10.3174 12.3113ZM12.3334 15.566C11.2294 15.566 10.3654 16.4151 10.3654 17.5C10.3654 18.5849 11.2294 19.434 12.3334 19.434C13.4374 19.434 14.3014 18.5849 14.3014 17.5C14.3014 16.4623 13.4374 15.566 12.3334 15.566ZM10.4614 22.7358C10.4614 21.7453 11.3254 20.8962 12.3334 20.8962C13.3894 20.8962 14.2054 21.7453 14.2054 22.7358C14.2054 23.7264 13.3414 24.5755 12.3334 24.5755C11.3254 24.5755 10.4614 23.7264 10.4614 22.7358ZM17.5174 4.95283C16.3174 4.95283 15.3094 5.9434 15.3094 7.12264C15.3094 8.30189 16.3174 9.29245 17.5174 9.29245C18.7174 9.29245 19.7254 8.30189 19.7254 7.12264C19.7254 5.9434 18.7174 4.95283 17.5174 4.95283ZM15.2134 12.3585C15.2134 11.0849 16.2694 10.0943 17.5174 10.0943C18.7654 10.0943 19.8214 11.0849 19.8214 12.3585C19.8214 13.6321 18.7654 14.6226 17.5174 14.6226C16.2214 14.6226 15.2134 13.5849 15.2134 12.3585ZM17.5174 15.3302C16.3174 15.3302 15.3094 16.3208 15.3094 17.5C15.3094 18.6792 16.3174 19.6698 17.5174 19.6698C18.7174 19.6698 19.7254 18.6792 19.7254 17.5C19.7254 16.3208 18.7174 15.3302 17.5174 15.3302ZM20.3014 12.3113C20.3014 10.8962 21.5014 9.81132 22.8454 9.81132C24.1894 9.81132 25.2934 10.8962 25.3894 12.3113C25.3894 13.7264 24.2854 14.8113 22.8454 14.8113C21.4054 14.8113 20.3014 13.6321 20.3014 12.3113ZM7.10137 5.42453C6.18937 5.42453 5.42137 6.17924 5.42137 7.07547C5.42137 7.9717 6.18937 8.72641 7.10137 8.72641C8.01337 8.72641 8.78137 7.9717 8.78137 7.07547C8.78137 6.17924 8.06137 5.42453 7.10137 5.42453ZM5.32537 12.3113C5.32537 11.3208 6.09337 10.566 7.10137 10.566C8.10937 10.566 8.87737 11.3208 8.87737 12.3113C8.87737 13.3019 8.10937 14.0566 7.10137 14.0566C6.09337 14.0566 5.32537 13.3019 5.32537 12.3113ZM7.10137 15.8019C6.18937 15.8019 5.42137 16.5566 5.42137 17.4528C5.42137 18.3491 6.18937 19.1038 7.10137 19.1038C8.01337 19.1038 8.78137 18.3491 8.78137 17.4528C8.78137 16.5566 8.06137 15.8019 7.10137 15.8019ZM0.333374 12.3585C0.333374 11.5094 1.00537 10.8491 1.86937 10.8491C2.73337 10.8491 3.40537 11.5094 3.40537 12.3585C3.40537 13.2075 2.73337 13.8679 1.86937 13.8679C1.00537 13.8679 0.333374 13.2075 0.333374 12.3585Z" fill="#636366"/>
<path d="M44.4934 9.10377C44.3014 9.10377 44.1574 9.29245 44.1574 9.43396V22.5C44.1574 22.6887 44.3494 22.8302 44.4934 22.8302H46.0774C46.2694 22.8302 46.4134 22.6415 46.4134 22.5V9.43396C46.4134 9.24528 46.2214 9.10377 46.0774 9.10377H44.4934Z" fill="#636366"/>
<path d="M45.3574 3.58491C44.4934 3.58491 43.8214 4.24528 43.8214 5.09434C43.8214 5.9434 44.4934 6.60377 45.3574 6.60377C46.2214 6.60377 46.8934 5.9434 46.8934 5.09434C46.8934 4.24528 46.1734 3.58491 45.3574 3.58491Z" fill="#636366"/>
<path d="M78.5734 9.10377C78.3814 9.10377 78.2374 9.29245 78.2374 9.43396V22.5C78.2374 22.6887 78.4294 22.8302 78.5734 22.8302H80.1574C80.3494 22.8302 80.4934 22.6415 80.4934 22.5V9.43396C80.4934 9.24528 80.3014 9.10377 80.1574 9.10377H78.5734Z" fill="#636366"/>
<path d="M79.3414 3.58491C78.4774 3.58491 77.8054 4.24528 77.8054 5.09434C77.8054 5.9434 78.4774 6.60377 79.3414 6.60377C80.2054 6.60377 80.8774 5.9434 80.8774 5.09434C80.8774 4.24528 80.2054 3.58491 79.3414 3.58491Z" fill="#636366"/>
<path fill-rule="evenodd" clip-rule="evenodd" d="M95.5484 21.3996C95.5385 21.4455 95.5143 21.5011 95.4554 21.5566C95.4554 21.6509 95.3554 21.7453 95.1554 21.6981L95.2319 21.7864C95.222 21.7902 95.2131 21.7925 95.2054 21.7925H95.0554L95.4054 22.217H95.6054L95.2319 21.7864C95.2486 21.78 95.2682 21.7692 95.2897 21.7573C95.3382 21.7305 95.3968 21.6981 95.4554 21.6981C95.5554 21.6981 95.5554 21.6038 95.5554 21.5094C95.5554 21.4706 95.5554 21.4318 95.5484 21.3996ZM94.8554 21.7925V21.2264H95.2054C95.3054 21.2264 95.4054 21.2264 95.4554 21.3208C95.5143 21.3208 95.5385 21.3535 95.5484 21.3996C95.5554 21.3675 95.5554 21.3402 95.5554 21.3208V21.2264C95.5554 21.2264 95.5554 21.1321 95.4554 21.1321C95.4554 21.1321 95.3554 21.0377 95.2554 21.0377H94.6054V22.217H94.8054V21.7925H94.8554Z" fill="#636366"/>
<path fill-rule="evenodd" clip-rule="evenodd" d="M93.9814 21.6509C93.9814 21.0849 94.5094 20.566 95.0854 20.566C95.7094 20.566 96.1894 21.0377 96.1894 21.6509C96.1894 22.217 95.6614 22.7358 95.0854 22.7358C94.5094 22.7358 93.9814 22.217 93.9814 21.6509ZM94.0774 21.6509C94.0774 22.217 94.5094 22.6415 95.0854 22.6415C95.6134 22.6415 96.0934 22.217 96.0934 21.6509C96.0934 21.0849 95.6614 20.6604 95.0854 20.6604C94.5094 20.6604 94.0774 21.0849 94.0774 21.6509Z" fill="#636366"/>
<path d="M57.6934 11.2264C57.8854 11.2264 58.0294 11.0377 58.0294 10.8962V9.33962C58.0294 9.15094 57.8374 9.00943 57.6934 9.00943H54.2854V4.00943C54.2854 3.82075 54.0934 3.67925 53.9494 3.67925H52.3654C52.1734 3.67925 52.0294 3.86792 52.0294 4.00943V9.00943H50.3494C50.1574 9.00943 50.0134 9.19811 50.0134 9.33962V10.8962C50.0134 11.0849 50.2054 11.2264 50.3494 11.2264H52.0294V18.7736C52.0294 21.0849 53.6134 22.5943 55.9174 22.5943H57.5974C57.7894 22.5943 57.9334 22.4057 57.9334 22.2642V20.7075C57.9334 20.5189 57.7414 20.3774 57.5974 20.3774H56.1574C55.0534 20.3774 54.2854 19.6226 54.2854 18.4434V11.1792H57.6934V11.2264Z" fill="#636366"/>
<path d="M91.3894 11.2264C91.5814 11.2264 91.7254 11.0377 91.7254 10.8962V9.33962C91.7254 9.15094 91.5334 9.00943 91.3894 9.00943H87.9814V4.00943C87.9814 3.82075 87.7894 3.67925 87.6454 3.67925H86.0614C85.8694 3.67925 85.7254 3.86792 85.7254 4.00943V9.00943H84.0454C83.8534 9.00943 83.7094 9.19811 83.7094 9.33962V10.8962C83.7094 11.0849 83.9014 11.2264 84.0454 11.2264H85.7254V18.7736C85.7254 21.0849 87.3094 22.5943 89.6134 22.5943H91.2934C91.4854 22.5943 91.6294 22.4057 91.6294 22.2642V20.7075C91.6294 20.5189 91.4374 20.3774 91.2934 20.3774H89.7574C88.6534 20.3774 87.8854 19.6226 87.8854 18.4434V11.1792H91.3414L91.3894 11.2264Z" fill="#636366"/>
<path d="M34.4134 11.2264V22.3585C34.4134 22.5472 34.6054 22.6887 34.7494 22.6887H36.3334C36.5254 22.6887 36.6694 22.5 36.6694 22.3585V11.2264H40.4134C40.6054 11.2264 40.7494 11.0377 40.7494 10.8962V9.33962C40.7494 9.15094 40.5574 9.00943 40.4134 9.00943H36.6694V6.08491C36.6694 4.90566 37.5334 4.10377 38.5414 4.10377H40.4134C40.6054 4.10377 40.7494 3.91509 40.7494 3.77358V2.21698C40.7494 2.0283 40.5574 1.88679 40.4134 1.88679H38.6374C36.2854 1.88679 34.4134 3.82075 34.4134 6.03774V9.00943H32.7334C32.5414 9.00943 32.3974 9.19811 32.3974 9.33962V10.8962C32.3974 11.0849 32.5894 11.2264 32.7334 11.2264H34.4134Z" fill="#636366"/>
<path fill-rule="evenodd" clip-rule="evenodd" d="M68.3014 8.58491C70.1734 8.58491 71.9494 9.33962 73.1974 10.6604C74.4454 11.9811 75.1174 13.8208 75.1174 15.8491C75.1174 20.8962 71.6134 23.1604 68.2534 23.1604C64.8454 23.1604 61.3894 20.9434 61.3894 15.8491V2.12264C61.3894 1.98113 61.5334 1.79245 61.7254 1.79245H63.3094C63.4534 1.79245 63.6454 1.93396 63.6454 2.12264V10.4245C64.7494 9.33962 66.5254 8.58491 68.3014 8.58491ZM63.5974 15.8962C63.5974 18.3962 64.8454 21.0377 68.2534 21.0377C71.6614 21.0377 72.8614 18.3962 72.9094 15.8962C72.9094 12.8774 71.0374 10.8019 68.2534 10.8019C65.4694 10.8019 63.5974 12.8302 63.5974 15.8962Z" fill="#636366"/>
</svg>
