<svg width="97" height="21" viewBox="0 0 97 21" fill="none" xmlns="http://www.w3.org/2000/svg">
<path d="M15.378 0.488372V11.7698C15.378 15.5302 13.7541 17.093 9.93325 17.093C6.11236 17.093 4.48848 15.5302 4.48848 11.7698V0H0.810864C0.476536 0 0.333252 0.146512 0.333252 0.488372V11.9163C0.333252 18.2163 4.24967 20.414 9.93325 20.414C15.6168 20.414 19.5333 18.2163 19.5333 11.9163V0H15.8556C15.5691 0 15.378 0.146512 15.378 0.488372Z" fill="#636366"/>
<path d="M68.7273 3.27209C69.0138 3.27209 69.1571 3.17442 69.2527 2.93023L70.3034 0.244186C70.3512 0.0976744 70.3034 0 70.1601 0H55.3541C53.9691 0 53.4437 0.439535 53.4437 1.41628V18.9C53.4437 19.7302 53.8258 20.0721 54.9243 20.0721H68.7273C69.0138 20.0721 69.1571 19.9744 69.2527 19.7302L70.3034 17.0442C70.3512 16.8977 70.3034 16.8 70.1601 16.8H57.5034V13.2349C57.5034 12.014 58.1721 11.4279 59.9392 11.4279H65.4318C65.7183 11.4279 65.8616 11.3302 65.9571 11.086L66.9601 8.49767C67.0079 8.35116 66.9601 8.25349 66.8168 8.25349H57.4556V3.27209H68.7273Z" fill="#636366"/>
<path fill-rule="evenodd" clip-rule="evenodd" d="M44.9422 5.07907C44.9422 6.98372 44.2736 8.59535 42.6497 9.47442C44.8467 10.1093 45.8497 12.1116 45.8019 14.5047C45.8019 18.5093 43.0318 20.0721 39.1631 20.0721H28.8944C27.7959 20.0721 27.4138 19.7302 27.4138 18.9V1.41628C27.4138 0.439535 27.9392 0 29.3243 0H37.7303C41.4079 0 44.9422 0.634883 44.9422 5.07907ZM31.5213 3.22326H38.0168C40.1661 3.22326 40.787 4.05349 40.787 5.81163C40.787 7.52093 40.1661 8.4 38.0168 8.4H31.5213V3.22326ZM38.781 16.8488H31.5213V13.186C31.5213 11.9651 32.19 11.3791 33.9571 11.3791H38.781C41.0736 11.3791 41.7422 12.307 41.7422 14.114C41.7422 15.9698 41.0736 16.8488 38.781 16.8488Z" fill="#636366"/>
<path fill-rule="evenodd" clip-rule="evenodd" d="M91.6049 12.014L95.9989 19.7302C96.0945 19.8279 96.0944 20.0721 95.7601 20.0721H92.0347C91.7593 20.0721 91.6604 19.9368 91.5259 19.7528C91.5204 19.7453 91.5149 19.7378 91.5094 19.7302L87.5452 12.4047H83.9153C82.1482 12.4047 81.4795 12.9907 81.4795 14.2116V20.0721H77.8974C77.5631 20.0721 77.4198 19.9256 77.4198 19.5837V1.41628C77.4198 0.439535 77.9452 0 79.3303 0H87.7362C92.6079 0 95.5691 1.3186 95.5691 6.20233C95.5691 9.96279 93.8019 11.4279 91.6049 12.014ZM81.4795 9.32791H88.3094C90.8885 9.32791 91.4138 8.30233 91.4138 6.25116C91.4138 4.24884 90.8407 3.22326 88.3094 3.22326H81.4795V9.32791Z" fill="#636366"/>
</svg>
